<mxfile host="Electron" agent="Mozilla/5.0 (Macintosh; Intel Mac OS X 10_15_7) AppleWebKit/537.36 (KHTML, like Gecko) draw.io/26.0.9 Chrome/128.0.6613.186 Electron/32.2.5 Safari/537.36" version="26.0.9">
  <diagram name="페이지-1" id="MDATusNwohMVHCTgXCYu">
    <mxGraphModel dx="1134" dy="716" grid="1" gridSize="10" guides="1" tooltips="1" connect="1" arrows="1" fold="1" page="1" pageScale="1" pageWidth="827" pageHeight="1169" math="0" shadow="0">
      <root>
        <mxCell id="0" />
        <mxCell id="1" parent="0" />
        <mxCell id="PgaCIj23IIEwNoL7DNm--3" value="Microservices" style="swimlane;whiteSpace=wrap;html=1;" vertex="1" parent="1">
          <mxGeometry x="328.78" y="440" width="161" height="170" as="geometry" />
        </mxCell>
        <mxCell id="PgaCIj23IIEwNoL7DNm--2" value="service2" style="shape=image;verticalLabelPosition=bottom;labelBackgroundColor=default;verticalAlign=top;aspect=fixed;imageAspect=0;image=data:image/png,iVBORw0KGgoAAAANSUhEUgAAAOEAAADgCAMAAADCMfHtAAAAilBMVEX///9tsz9rsjxfrSVpsThhrilkry9msDNgrihpsTllsDHu9uperSL5/Pfq8+X9/vzU58r0+fFztkfN48GjzYvh7tqPw3CXx3t5uVHF37e42Kefy4aAvFu+266r0ZXb69OHv2Wx1J6LwWt8ulWu05rP5MTX6M252KiUxXfm8d/I4buDvWBRpwB3uEwJ6xWyAAAP0ElEQVR4nNVd12KqShSVaRSxoFhRozF61Fz///fuDFioU2CQyXo5STwxLKfsvnev1zIG1/NqHS72SyuD+/4SHlbj66Dtv98mBrNVuHchJp6NXGDlAFxk2wRD9Btuv4Kun1Ud11U0odRQgVgRAHkYW4vtrOtnlsd1O8dYilyapo3hfv0HWI5OEXBsV4XcG66N7cXU5JM5uM0xUVu7AhBx9itDSZ4uvldz8XJL6fnft1HXdPK4hjbRQu9BkpDIqDN522Ckj14ChO8rQxZycLBJs7NXAeDhXb9rdr1eP8R2G/QS2HBx7ZbfcOFr355ZIDjvkGO/dX4MbmccByH8AL+E40JOcb1pFaTrNs9fHsjfydyrk7E+fmPL+xw/BhvdhA818yNd/IJvpxX5wAPAm6HgsebI1kRwDTWqL/Jw/R33sYbQwl86+A2PpAt+DN6Ep8otkIVCDQQP8OMb9A0Aq5eRLiE9ro35BZvOFjCBN6k6jRcmu3BTfX2KOzmBaQC4LX20q89etflHVYgIds2PAc/LZOM+/uzBpAm/YPlBGc8Dsopq3Nih9OhrTgMN79z9Dn0CwIL4nwALHClFe12b4Nrvmlca+Tt1TVUsGNC7BhzrElzgrkllQb7TTxfQCwJFvZBShPWM5tHvh9VQMexlypD4pgcIB70vugxe+VUrQHD/kJ2kAtd9rdaUMTvQL+hV6P7WINhHxtwxaQDyEO8DSgwA9lVEV8JXNxKvXod6Gg8AJor2nB2/2DQcU42LTFUJzrChBCl8xutG9yiaJw9LGaKFKsEuNW0h/FOvz2558tia1L5Q1b5NXkEGf7xh9+hzZ07pIqoZiVfDCdI7lCkyr4058hW1777xBBmA9VbFqWRU0b6DhqGyDwGmTMatl/2ej9HESDmYB1yldx1UUWs2BmoyRXhZ38wSWO53BaE8FoaYg3ygffapD/SpfTmCh449MnJw77nHnlHxSKR83ycjPBYiAFTQQunRQjLyov83CJKiNUi1byl5MfkLcgLgEq8MU2scsby4/IVbBpS6nQa+jLxYGeazKEXpClIcqbyYCwgOjfI6VQB4FVuRyQsiYHj/A4fQRVUuJyYvBPbFzji3UxHoXu2soGtoH3gEZ39gj3p7TtT7Qu2LDY+hZf4exdxwNrMvfM4nsDNeUACfLwyGDldxuxqvzLieyE1BdyHH0N+YbhN6G2FyDVPcllUvrgy3KIAgXSHGjR5Ep+JzGBlOEKGzmGDsYCSn8tcMv2acuZzLHoEqC8psmwkRcV5UguqDeDHYMwPgRTrmsmIet7L/PTN4CW2gkJZXKRH3xkoKF/7I8+slqmnJb3yZuoQAzhVj1/Ny1dTQJQRkqZyQty71Kc6MNOwBmSiHPOl2JGUZYHMDlxAQa1XGQIQBXS07r58PzTuFdP1kJWAeSyrzL7mfRabJQgQ3FZqXBEIq863sjwZmWfbA9hdNMilXReV7bZJGivBk3ayyYFZUvs3xXSBCoub52n7eHXU2Q1QAROCi/ulL4ZiPI14MEBWu51ihrqIQdnGi1PeDjkUFQJ6DLlvpALwYzOGG+9nvu6HmIptgvNndNLJj+MpFSo8fvWcA5YVsjxAHW/vw37iNOkq2K1NXTbu2fULI9igljB0IiXWMe0acZv0W62CpcHDfWk0rwhDEbSEc7FmbyyI8rFfT03k27H+qFJ3lDoHXd5o3KWBnC22iw+p8DboqV2ZOtVeuaV+jMAQ28e+RAc08mN72MqC03aSIOMfD2YyWCDNqInpP0+Rbi7in2pZJXS0C5+2rGWnYpMCDF401qjrA0tof8fxzY1e+i+9bc1bvAWoEPxNrmrryEbx02MSiUhdiGdE4ucmXjWQF8qNOeztU+qlYTgaO+Tey7l0YdSsXgkpPFRMX5FWkUBPqrlrtWFfuUna9eDH/Q+1jaE+01E43QnWS3hU/s9rruroB5CatfAbn6vwuZl0kunfNJfSWmi26WthzHMbwUY7IIlE1IBNPbx/D/zgfM8sgZY6MU52LxiUy8fT2ESHOi+z4wVG9i8a+d246xAi4OykW+f1aXjYiSt/8FEKfd5kzXY3VKKqnWmId3Sd0IPC5dWrMc8FEvrJh4RggJBIsCDeDjyk11EJUtu9x/Yp3zbhCzL3vWE67vY2jpUoEjVnB3h653NeZOmofeje1q5QYIQZjjB1BpSHzY6BQ0ZHoqRbZtgiqNvK1KqaYulFvpxL6RXWK3VvCweOnOlOFB8eK6UKBIXDNcVX0HUuU5sZ8UeC7t1cQh37HTQzToCqZqGg7oGtI1/kuTxDXajnRDla4NK0rA2Y+gWVPniCSLc38ANjyQJFuPGLxprsCQ2LOIWR7FIkb7DGGE3mGuG7yTgvYUknniw1wNYau4Gr+JFj6ViHjqQRxVFSaoXyRe/tgxjsU3+sjJYZa+vVpQmTLLeFAaZdic66ZlSO5pQKVu7RpLzuNiMuWJC7Sh04jKw9rtCZqCaM4Pc2X8RMx0xf8yjE06BT+Mj1aqM7EYJo3mMsxrNkErQWEzNgDPB/iG8w+dBdSDKVbabSObey+llQ+mI1PD6wMw6oqqY9jHAcCZZWPqUcZ/kgx1NWAuCke1Z8S+lqMLasr+SfD0JR7pm/Htqy05GLefO/Wm0hs0u6jhAyDZOBQPkG9GizFlJx7G7GNL2pQ8Bk8ezpB6ZgQKyDBV4mwhXITu1YwWiYOJVu+7zpT0HFfoszCM8IwPCbPCfhO4AzYxQsHEsE1I8T9sysXN9iUBfN0WB7V1EUM5U92i3isoOUpWABMpQF3iVwTA47h8wxyquxLwGrWmTZ2FcWeqMzsGINXC1ylA/NjJ6JcWIfQecQ+sJ7XvZozjDVujZdHJA+dji+aof18QgVBwcAUhFij/hUIRNLtXKmvV/tNV+UQJha+FbeSCvkCsVmn+sa4vdMKiVr+R5w1G2dfrvhJ3u6+lSeXxM/7llCQhDGYoE+WR1Dg3KmwuLxFGVa90lnyevLwAwHD7kyn9DAGxVumF7eFfko6fkKNnNOnDXylximqB5/jrfmQdHzdu8E4hWb4l2qz7d6VL/R/bP0fTlD+VdMVw0vq8ACknkbH0vaecoCfftkNw+EkbRBg9agQa3v99oxzdW9+97qWsPXTdwOsUesQ55S+LFtuOkYHEYvBPHO9+3UU45jTS1HnmohSMRCtONuZT9yv0fij12N3y1sd41aQuhKBOq2IsqMK/Fo+lNjqTYlynkSsP5qmFr5AdkP5tVqbJJs05arnFj4puH4aYxTmZk3UW8GHnpaK6n7xFLcPRn9PKPdR1zuDj5slYzPw1rDxsDZZBPP8JAZYNyIUH7tMu2Se4vYpd+nByT3Ec4yMOmaxDpOJE/NqLKUanDfGycrvI0Bq5wnGjfVyVyRHNf3EZXrdF0aFuFZt/1Ai/XI9vXmujNL2fDoRLIqDTTMjuRSRkMkl9s042rfcpIHaKJ2c3KRmJXZBFb0vHKHfqpU/+HFKLnLOuFExkiUsDLbiNR1oL8gd7MomQ4Oacv7xnol3rhD05Hlr2ooBD0NYJogRaJRsnXQoLdl4HBOqHXfb17x8Mjv5bXSzPTqUluS98ZyK+hW30epeMfTTb+j5SkrvSwsVOB1cdHsyZhG2y/8a8hrGgbaJ7lKaAcSpJZXMspJDf33P62cvkH3D3ZJIiqqoLqcnXb3Rl2VPsPqtWj52hzYOVT7q0gttLxPwmpVrERj97cbnTIskx8ZxvMcetbwK9ypnylpzf9T1cISVq2ex2fDNnXrPBqWV/sEtx0xslMg+Godu9eZMFnCjIVP+OeDIqfSQcx6ivoUx3O4hEQzhQ6SeOyaL54AjTqhlyzuJdfZpcAotxxZlXQE/0iFw10+Jzota81p8+oouhdH5Z4lFi8f44Y0WP8npGS32eNJ7ynNJKYwtH30dfiHhn7znB27V9Dbl8JqOIxDevExFYEvd5owdlmNH936F5FLG8OUkEBxp7pwgMcXB+GcDBbdm6v08bdlIQ/L8myA/LjAPbpQG8Oyo/jQ8Su7Mx5u52io2UyNvhQ46flQfwPKHmm0XliNxq7zh4rs+L+X5TVDC0uNJDAr8nbvYg/HPL8Se0tRZYMO5Rqt6lTpaMoaeIC0avdM+RmzpVDZmApegH52ZZGEqdEZkNr5wcJ4H6P66rsIlxrbywGDg+XOt1RuDTUrXdOU0L+GIVUAsWINcvDuPmrsPjklaY5LNzhT3a63TpI/SW6415zmOokxwl8j6IlqYkuB68FjdO64uctE4hVLlrd4G7Yjg/VZ/luowH+wQFuin8K1tEgSg9Frp2xpE+WCHoyJgR27xpAHWgFtoCeV+BbthK0nUwa7gzbLVvLqFyU8AT3a382k7L3PDl4IdvUM7rUKGUdFZrpzpmzuK9v25FEEocw8hAr9XLSWIj/clwaoabpbMZPVMT60ZEQiLNlsmX3eIlJ0UWMPKPL7fKDeCnluigTCK2go4Xg/3ikNSq33V4KW0FIIAVZ5VQOmFLQWqBmPm8qnYPXa9QuWX4C+2oCjVehAGu3boxYY1xzhzRVZvFc6JDu4WM5BvhXhqW6sXnP8tJgL7pU6C7QOrsqQGhlwpESBYw+ybLILZdB1tECZiFb9Ggu0LsQuSlDj70ro38PaxPTQYzsa39eFnF0aLBFEUhbufw2G93d6mp/H5azYc9oNgUO7PHATD4dd4uj2El18EHRluMVQLMbLY4fKPKNUhDPxuT+tof/cgpg9FgTKwY3hsfAfBDA6GEGKPPf4kAd3jNqE/degbEI++UqJRcQg2vLlDUsrwN72GtupDPX/xBfXffRNs7O4JSVl5njEDvmrmn2YploS9dI78aAQdBOlZLNbj8+Jwn0TzLZrgp/BBGTKkTTVYVI28gW7G5GfgaJTBs4ylsDLiFAJbq/E5TEmMHyPGeaKJ5pbiw92D4/RuxBb19trLk0cbtNiFeywyfz+DdlqK73yqunRNLQaAWsRgEaeKZLtPA7mt9cINll2NSUwDf7fZISBftfN5VAVptSFXOvdxeJPWu4yOLvVmmmgBaJTiLo1TZ8toTz5UgzVa+F2cRh3Zi9KYTRoPo1MFwL+fbSPzTzpCowce0JMcpoBB5H9O/tvdzEUZzosFWa0AwbCrFriz/Qc4In/RZR+nWWksTyc/2Ck/huultHhJC4CNQxNGZ/V3mFNjUB8ucdfGtKBeLSvLYGoC2HBvSm/fBLPQK40+1wPCltbkPk04XSDRsZKIEO2xOl0YTS8y2fkc0LvFjrpuYyjAeTeBdfIW4/QpeDyYunoZ9FeRC9XSp1yb+JNwaoJokEX/tNvbjjiMC1xkEwd9H8Z/id0L/fG/aONCTDzbRq77DIXSf11KzPYIhtY+3J7/JLkURsMvFpxfXPab5X0yud+Pm+9LtFuvTrP+B/pq/g8vLfnm32oASwAAAABJRU5ErkJggg==;" vertex="1" parent="PgaCIj23IIEwNoL7DNm--3">
          <mxGeometry x="110" y="30" width="40.18" height="40" as="geometry" />
        </mxCell>
        <mxCell id="PgaCIj23IIEwNoL7DNm--1" value="service1" style="shape=image;verticalLabelPosition=bottom;labelBackgroundColor=default;verticalAlign=top;aspect=fixed;imageAspect=0;image=data:image/png,iVBORw0KGgoAAAANSUhEUgAAAOEAAADgCAMAAADCMfHtAAAAilBMVEX///9tsz9rsjxfrSVpsThhrilkry9msDNgrihpsTllsDHu9uperSL5/Pfq8+X9/vzU58r0+fFztkfN48GjzYvh7tqPw3CXx3t5uVHF37e42Kefy4aAvFu+266r0ZXb69OHv2Wx1J6LwWt8ulWu05rP5MTX6M252KiUxXfm8d/I4buDvWBRpwB3uEwJ6xWyAAAP0ElEQVR4nNVd12KqShSVaRSxoFhRozF61Fz///fuDFioU2CQyXo5STwxLKfsvnev1zIG1/NqHS72SyuD+/4SHlbj66Dtv98mBrNVuHchJp6NXGDlAFxk2wRD9Btuv4Kun1Ud11U0odRQgVgRAHkYW4vtrOtnlsd1O8dYilyapo3hfv0HWI5OEXBsV4XcG66N7cXU5JM5uM0xUVu7AhBx9itDSZ4uvldz8XJL6fnft1HXdPK4hjbRQu9BkpDIqDN522Ckj14ChO8rQxZycLBJs7NXAeDhXb9rdr1eP8R2G/QS2HBx7ZbfcOFr355ZIDjvkGO/dX4MbmccByH8AL+E40JOcb1pFaTrNs9fHsjfydyrk7E+fmPL+xw/BhvdhA818yNd/IJvpxX5wAPAm6HgsebI1kRwDTWqL/Jw/R33sYbQwl86+A2PpAt+DN6Ep8otkIVCDQQP8OMb9A0Aq5eRLiE9ro35BZvOFjCBN6k6jRcmu3BTfX2KOzmBaQC4LX20q89etflHVYgIds2PAc/LZOM+/uzBpAm/YPlBGc8Dsopq3Nih9OhrTgMN79z9Dn0CwIL4nwALHClFe12b4Nrvmlca+Tt1TVUsGNC7BhzrElzgrkllQb7TTxfQCwJFvZBShPWM5tHvh9VQMexlypD4pgcIB70vugxe+VUrQHD/kJ2kAtd9rdaUMTvQL+hV6P7WINhHxtwxaQDyEO8DSgwA9lVEV8JXNxKvXod6Gg8AJor2nB2/2DQcU42LTFUJzrChBCl8xutG9yiaJw9LGaKFKsEuNW0h/FOvz2558tia1L5Q1b5NXkEGf7xh9+hzZ07pIqoZiVfDCdI7lCkyr4058hW1777xBBmA9VbFqWRU0b6DhqGyDwGmTMatl/2ej9HESDmYB1yldx1UUWs2BmoyRXhZ38wSWO53BaE8FoaYg3ygffapD/SpfTmCh449MnJw77nHnlHxSKR83ycjPBYiAFTQQunRQjLyov83CJKiNUi1byl5MfkLcgLgEq8MU2scsby4/IVbBpS6nQa+jLxYGeazKEXpClIcqbyYCwgOjfI6VQB4FVuRyQsiYHj/A4fQRVUuJyYvBPbFzji3UxHoXu2soGtoH3gEZ39gj3p7TtT7Qu2LDY+hZf4exdxwNrMvfM4nsDNeUACfLwyGDldxuxqvzLieyE1BdyHH0N+YbhN6G2FyDVPcllUvrgy3KIAgXSHGjR5Ep+JzGBlOEKGzmGDsYCSn8tcMv2acuZzLHoEqC8psmwkRcV5UguqDeDHYMwPgRTrmsmIet7L/PTN4CW2gkJZXKRH3xkoKF/7I8+slqmnJb3yZuoQAzhVj1/Ny1dTQJQRkqZyQty71Kc6MNOwBmSiHPOl2JGUZYHMDlxAQa1XGQIQBXS07r58PzTuFdP1kJWAeSyrzL7mfRabJQgQ3FZqXBEIq863sjwZmWfbA9hdNMilXReV7bZJGivBk3ayyYFZUvs3xXSBCoub52n7eHXU2Q1QAROCi/ulL4ZiPI14MEBWu51ihrqIQdnGi1PeDjkUFQJ6DLlvpALwYzOGG+9nvu6HmIptgvNndNLJj+MpFSo8fvWcA5YVsjxAHW/vw37iNOkq2K1NXTbu2fULI9igljB0IiXWMe0acZv0W62CpcHDfWk0rwhDEbSEc7FmbyyI8rFfT03k27H+qFJ3lDoHXd5o3KWBnC22iw+p8DboqV2ZOtVeuaV+jMAQ28e+RAc08mN72MqC03aSIOMfD2YyWCDNqInpP0+Rbi7in2pZJXS0C5+2rGWnYpMCDF401qjrA0tof8fxzY1e+i+9bc1bvAWoEPxNrmrryEbx02MSiUhdiGdE4ucmXjWQF8qNOeztU+qlYTgaO+Tey7l0YdSsXgkpPFRMX5FWkUBPqrlrtWFfuUna9eDH/Q+1jaE+01E43QnWS3hU/s9rruroB5CatfAbn6vwuZl0kunfNJfSWmi26WthzHMbwUY7IIlE1IBNPbx/D/zgfM8sgZY6MU52LxiUy8fT2ESHOi+z4wVG9i8a+d246xAi4OykW+f1aXjYiSt/8FEKfd5kzXY3VKKqnWmId3Sd0IPC5dWrMc8FEvrJh4RggJBIsCDeDjyk11EJUtu9x/Yp3zbhCzL3vWE67vY2jpUoEjVnB3h653NeZOmofeje1q5QYIQZjjB1BpSHzY6BQ0ZHoqRbZtgiqNvK1KqaYulFvpxL6RXWK3VvCweOnOlOFB8eK6UKBIXDNcVX0HUuU5sZ8UeC7t1cQh37HTQzToCqZqGg7oGtI1/kuTxDXajnRDla4NK0rA2Y+gWVPniCSLc38ANjyQJFuPGLxprsCQ2LOIWR7FIkb7DGGE3mGuG7yTgvYUknniw1wNYau4Gr+JFj6ViHjqQRxVFSaoXyRe/tgxjsU3+sjJYZa+vVpQmTLLeFAaZdic66ZlSO5pQKVu7RpLzuNiMuWJC7Sh04jKw9rtCZqCaM4Pc2X8RMx0xf8yjE06BT+Mj1aqM7EYJo3mMsxrNkErQWEzNgDPB/iG8w+dBdSDKVbabSObey+llQ+mI1PD6wMw6oqqY9jHAcCZZWPqUcZ/kgx1NWAuCke1Z8S+lqMLasr+SfD0JR7pm/Htqy05GLefO/Wm0hs0u6jhAyDZOBQPkG9GizFlJx7G7GNL2pQ8Bk8ezpB6ZgQKyDBV4mwhXITu1YwWiYOJVu+7zpT0HFfoszCM8IwPCbPCfhO4AzYxQsHEsE1I8T9sysXN9iUBfN0WB7V1EUM5U92i3isoOUpWABMpQF3iVwTA47h8wxyquxLwGrWmTZ2FcWeqMzsGINXC1ylA/NjJ6JcWIfQecQ+sJ7XvZozjDVujZdHJA+dji+aof18QgVBwcAUhFij/hUIRNLtXKmvV/tNV+UQJha+FbeSCvkCsVmn+sa4vdMKiVr+R5w1G2dfrvhJ3u6+lSeXxM/7llCQhDGYoE+WR1Dg3KmwuLxFGVa90lnyevLwAwHD7kyn9DAGxVumF7eFfko6fkKNnNOnDXylximqB5/jrfmQdHzdu8E4hWb4l2qz7d6VL/R/bP0fTlD+VdMVw0vq8ACknkbH0vaecoCfftkNw+EkbRBg9agQa3v99oxzdW9+97qWsPXTdwOsUesQ55S+LFtuOkYHEYvBPHO9+3UU45jTS1HnmohSMRCtONuZT9yv0fij12N3y1sd41aQuhKBOq2IsqMK/Fo+lNjqTYlynkSsP5qmFr5AdkP5tVqbJJs05arnFj4puH4aYxTmZk3UW8GHnpaK6n7xFLcPRn9PKPdR1zuDj5slYzPw1rDxsDZZBPP8JAZYNyIUH7tMu2Se4vYpd+nByT3Ec4yMOmaxDpOJE/NqLKUanDfGycrvI0Bq5wnGjfVyVyRHNf3EZXrdF0aFuFZt/1Ai/XI9vXmujNL2fDoRLIqDTTMjuRSRkMkl9s042rfcpIHaKJ2c3KRmJXZBFb0vHKHfqpU/+HFKLnLOuFExkiUsDLbiNR1oL8gd7MomQ4Oacv7xnol3rhD05Hlr2ooBD0NYJogRaJRsnXQoLdl4HBOqHXfb17x8Mjv5bXSzPTqUluS98ZyK+hW30epeMfTTb+j5SkrvSwsVOB1cdHsyZhG2y/8a8hrGgbaJ7lKaAcSpJZXMspJDf33P62cvkH3D3ZJIiqqoLqcnXb3Rl2VPsPqtWj52hzYOVT7q0gttLxPwmpVrERj97cbnTIskx8ZxvMcetbwK9ypnylpzf9T1cISVq2ex2fDNnXrPBqWV/sEtx0xslMg+Godu9eZMFnCjIVP+OeDIqfSQcx6ivoUx3O4hEQzhQ6SeOyaL54AjTqhlyzuJdfZpcAotxxZlXQE/0iFw10+Jzota81p8+oouhdH5Z4lFi8f44Y0WP8npGS32eNJ7ynNJKYwtH30dfiHhn7znB27V9Dbl8JqOIxDevExFYEvd5owdlmNH936F5FLG8OUkEBxp7pwgMcXB+GcDBbdm6v08bdlIQ/L8myA/LjAPbpQG8Oyo/jQ8Su7Mx5u52io2UyNvhQ46flQfwPKHmm0XliNxq7zh4rs+L+X5TVDC0uNJDAr8nbvYg/HPL8Se0tRZYMO5Rqt6lTpaMoaeIC0avdM+RmzpVDZmApegH52ZZGEqdEZkNr5wcJ4H6P66rsIlxrbywGDg+XOt1RuDTUrXdOU0L+GIVUAsWINcvDuPmrsPjklaY5LNzhT3a63TpI/SW6415zmOokxwl8j6IlqYkuB68FjdO64uctE4hVLlrd4G7Yjg/VZ/luowH+wQFuin8K1tEgSg9Frp2xpE+WCHoyJgR27xpAHWgFtoCeV+BbthK0nUwa7gzbLVvLqFyU8AT3a382k7L3PDl4IdvUM7rUKGUdFZrpzpmzuK9v25FEEocw8hAr9XLSWIj/clwaoabpbMZPVMT60ZEQiLNlsmX3eIlJ0UWMPKPL7fKDeCnluigTCK2go4Xg/3ikNSq33V4KW0FIIAVZ5VQOmFLQWqBmPm8qnYPXa9QuWX4C+2oCjVehAGu3boxYY1xzhzRVZvFc6JDu4WM5BvhXhqW6sXnP8tJgL7pU6C7QOrsqQGhlwpESBYw+ybLILZdB1tECZiFb9Ggu0LsQuSlDj70ro38PaxPTQYzsa39eFnF0aLBFEUhbufw2G93d6mp/H5azYc9oNgUO7PHATD4dd4uj2El18EHRluMVQLMbLY4fKPKNUhDPxuT+tof/cgpg9FgTKwY3hsfAfBDA6GEGKPPf4kAd3jNqE/degbEI++UqJRcQg2vLlDUsrwN72GtupDPX/xBfXffRNs7O4JSVl5njEDvmrmn2YploS9dI78aAQdBOlZLNbj8+Jwn0TzLZrgp/BBGTKkTTVYVI28gW7G5GfgaJTBs4ylsDLiFAJbq/E5TEmMHyPGeaKJ5pbiw92D4/RuxBb19trLk0cbtNiFeywyfz+DdlqK73yqunRNLQaAWsRgEaeKZLtPA7mt9cINll2NSUwDf7fZISBftfN5VAVptSFXOvdxeJPWu4yOLvVmmmgBaJTiLo1TZ8toTz5UgzVa+F2cRh3Zi9KYTRoPo1MFwL+fbSPzTzpCowce0JMcpoBB5H9O/tvdzEUZzosFWa0AwbCrFriz/Qc4In/RZR+nWWksTyc/2Ck/huultHhJC4CNQxNGZ/V3mFNjUB8ucdfGtKBeLSvLYGoC2HBvSm/fBLPQK40+1wPCltbkPk04XSDRsZKIEO2xOl0YTS8y2fkc0LvFjrpuYyjAeTeBdfIW4/QpeDyYunoZ9FeRC9XSp1yb+JNwaoJokEX/tNvbjjiMC1xkEwd9H8Z/id0L/fG/aONCTDzbRq77DIXSf11KzPYIhtY+3J7/JLkURsMvFpxfXPab5X0yud+Pm+9LtFuvTrP+B/pq/g8vLfnm32oASwAAAABJRU5ErkJggg==;" vertex="1" parent="PgaCIj23IIEwNoL7DNm--3">
          <mxGeometry x="21" y="30" width="40.18" height="40" as="geometry" />
        </mxCell>
        <mxCell id="PgaCIj23IIEwNoL7DNm--4" value="service4" style="shape=image;verticalLabelPosition=bottom;labelBackgroundColor=default;verticalAlign=top;aspect=fixed;imageAspect=0;image=data:image/png,iVBORw0KGgoAAAANSUhEUgAAAOEAAADgCAMAAADCMfHtAAAAilBMVEX///9tsz9rsjxfrSVpsThhrilkry9msDNgrihpsTllsDHu9uperSL5/Pfq8+X9/vzU58r0+fFztkfN48GjzYvh7tqPw3CXx3t5uVHF37e42Kefy4aAvFu+266r0ZXb69OHv2Wx1J6LwWt8ulWu05rP5MTX6M252KiUxXfm8d/I4buDvWBRpwB3uEwJ6xWyAAAP0ElEQVR4nNVd12KqShSVaRSxoFhRozF61Fz///fuDFioU2CQyXo5STwxLKfsvnev1zIG1/NqHS72SyuD+/4SHlbj66Dtv98mBrNVuHchJp6NXGDlAFxk2wRD9Btuv4Kun1Ud11U0odRQgVgRAHkYW4vtrOtnlsd1O8dYilyapo3hfv0HWI5OEXBsV4XcG66N7cXU5JM5uM0xUVu7AhBx9itDSZ4uvldz8XJL6fnft1HXdPK4hjbRQu9BkpDIqDN522Ckj14ChO8rQxZycLBJs7NXAeDhXb9rdr1eP8R2G/QS2HBx7ZbfcOFr355ZIDjvkGO/dX4MbmccByH8AL+E40JOcb1pFaTrNs9fHsjfydyrk7E+fmPL+xw/BhvdhA818yNd/IJvpxX5wAPAm6HgsebI1kRwDTWqL/Jw/R33sYbQwl86+A2PpAt+DN6Ep8otkIVCDQQP8OMb9A0Aq5eRLiE9ro35BZvOFjCBN6k6jRcmu3BTfX2KOzmBaQC4LX20q89etflHVYgIds2PAc/LZOM+/uzBpAm/YPlBGc8Dsopq3Nih9OhrTgMN79z9Dn0CwIL4nwALHClFe12b4Nrvmlca+Tt1TVUsGNC7BhzrElzgrkllQb7TTxfQCwJFvZBShPWM5tHvh9VQMexlypD4pgcIB70vugxe+VUrQHD/kJ2kAtd9rdaUMTvQL+hV6P7WINhHxtwxaQDyEO8DSgwA9lVEV8JXNxKvXod6Gg8AJor2nB2/2DQcU42LTFUJzrChBCl8xutG9yiaJw9LGaKFKsEuNW0h/FOvz2558tia1L5Q1b5NXkEGf7xh9+hzZ07pIqoZiVfDCdI7lCkyr4058hW1777xBBmA9VbFqWRU0b6DhqGyDwGmTMatl/2ej9HESDmYB1yldx1UUWs2BmoyRXhZ38wSWO53BaE8FoaYg3ygffapD/SpfTmCh449MnJw77nHnlHxSKR83ycjPBYiAFTQQunRQjLyov83CJKiNUi1byl5MfkLcgLgEq8MU2scsby4/IVbBpS6nQa+jLxYGeazKEXpClIcqbyYCwgOjfI6VQB4FVuRyQsiYHj/A4fQRVUuJyYvBPbFzji3UxHoXu2soGtoH3gEZ39gj3p7TtT7Qu2LDY+hZf4exdxwNrMvfM4nsDNeUACfLwyGDldxuxqvzLieyE1BdyHH0N+YbhN6G2FyDVPcllUvrgy3KIAgXSHGjR5Ep+JzGBlOEKGzmGDsYCSn8tcMv2acuZzLHoEqC8psmwkRcV5UguqDeDHYMwPgRTrmsmIet7L/PTN4CW2gkJZXKRH3xkoKF/7I8+slqmnJb3yZuoQAzhVj1/Ny1dTQJQRkqZyQty71Kc6MNOwBmSiHPOl2JGUZYHMDlxAQa1XGQIQBXS07r58PzTuFdP1kJWAeSyrzL7mfRabJQgQ3FZqXBEIq863sjwZmWfbA9hdNMilXReV7bZJGivBk3ayyYFZUvs3xXSBCoub52n7eHXU2Q1QAROCi/ulL4ZiPI14MEBWu51ihrqIQdnGi1PeDjkUFQJ6DLlvpALwYzOGG+9nvu6HmIptgvNndNLJj+MpFSo8fvWcA5YVsjxAHW/vw37iNOkq2K1NXTbu2fULI9igljB0IiXWMe0acZv0W62CpcHDfWk0rwhDEbSEc7FmbyyI8rFfT03k27H+qFJ3lDoHXd5o3KWBnC22iw+p8DboqV2ZOtVeuaV+jMAQ28e+RAc08mN72MqC03aSIOMfD2YyWCDNqInpP0+Rbi7in2pZJXS0C5+2rGWnYpMCDF401qjrA0tof8fxzY1e+i+9bc1bvAWoEPxNrmrryEbx02MSiUhdiGdE4ucmXjWQF8qNOeztU+qlYTgaO+Tey7l0YdSsXgkpPFRMX5FWkUBPqrlrtWFfuUna9eDH/Q+1jaE+01E43QnWS3hU/s9rruroB5CatfAbn6vwuZl0kunfNJfSWmi26WthzHMbwUY7IIlE1IBNPbx/D/zgfM8sgZY6MU52LxiUy8fT2ESHOi+z4wVG9i8a+d246xAi4OykW+f1aXjYiSt/8FEKfd5kzXY3VKKqnWmId3Sd0IPC5dWrMc8FEvrJh4RggJBIsCDeDjyk11EJUtu9x/Yp3zbhCzL3vWE67vY2jpUoEjVnB3h653NeZOmofeje1q5QYIQZjjB1BpSHzY6BQ0ZHoqRbZtgiqNvK1KqaYulFvpxL6RXWK3VvCweOnOlOFB8eK6UKBIXDNcVX0HUuU5sZ8UeC7t1cQh37HTQzToCqZqGg7oGtI1/kuTxDXajnRDla4NK0rA2Y+gWVPniCSLc38ANjyQJFuPGLxprsCQ2LOIWR7FIkb7DGGE3mGuG7yTgvYUknniw1wNYau4Gr+JFj6ViHjqQRxVFSaoXyRe/tgxjsU3+sjJYZa+vVpQmTLLeFAaZdic66ZlSO5pQKVu7RpLzuNiMuWJC7Sh04jKw9rtCZqCaM4Pc2X8RMx0xf8yjE06BT+Mj1aqM7EYJo3mMsxrNkErQWEzNgDPB/iG8w+dBdSDKVbabSObey+llQ+mI1PD6wMw6oqqY9jHAcCZZWPqUcZ/kgx1NWAuCke1Z8S+lqMLasr+SfD0JR7pm/Htqy05GLefO/Wm0hs0u6jhAyDZOBQPkG9GizFlJx7G7GNL2pQ8Bk8ezpB6ZgQKyDBV4mwhXITu1YwWiYOJVu+7zpT0HFfoszCM8IwPCbPCfhO4AzYxQsHEsE1I8T9sysXN9iUBfN0WB7V1EUM5U92i3isoOUpWABMpQF3iVwTA47h8wxyquxLwGrWmTZ2FcWeqMzsGINXC1ylA/NjJ6JcWIfQecQ+sJ7XvZozjDVujZdHJA+dji+aof18QgVBwcAUhFij/hUIRNLtXKmvV/tNV+UQJha+FbeSCvkCsVmn+sa4vdMKiVr+R5w1G2dfrvhJ3u6+lSeXxM/7llCQhDGYoE+WR1Dg3KmwuLxFGVa90lnyevLwAwHD7kyn9DAGxVumF7eFfko6fkKNnNOnDXylximqB5/jrfmQdHzdu8E4hWb4l2qz7d6VL/R/bP0fTlD+VdMVw0vq8ACknkbH0vaecoCfftkNw+EkbRBg9agQa3v99oxzdW9+97qWsPXTdwOsUesQ55S+LFtuOkYHEYvBPHO9+3UU45jTS1HnmohSMRCtONuZT9yv0fij12N3y1sd41aQuhKBOq2IsqMK/Fo+lNjqTYlynkSsP5qmFr5AdkP5tVqbJJs05arnFj4puH4aYxTmZk3UW8GHnpaK6n7xFLcPRn9PKPdR1zuDj5slYzPw1rDxsDZZBPP8JAZYNyIUH7tMu2Se4vYpd+nByT3Ec4yMOmaxDpOJE/NqLKUanDfGycrvI0Bq5wnGjfVyVyRHNf3EZXrdF0aFuFZt/1Ai/XI9vXmujNL2fDoRLIqDTTMjuRSRkMkl9s042rfcpIHaKJ2c3KRmJXZBFb0vHKHfqpU/+HFKLnLOuFExkiUsDLbiNR1oL8gd7MomQ4Oacv7xnol3rhD05Hlr2ooBD0NYJogRaJRsnXQoLdl4HBOqHXfb17x8Mjv5bXSzPTqUluS98ZyK+hW30epeMfTTb+j5SkrvSwsVOB1cdHsyZhG2y/8a8hrGgbaJ7lKaAcSpJZXMspJDf33P62cvkH3D3ZJIiqqoLqcnXb3Rl2VPsPqtWj52hzYOVT7q0gttLxPwmpVrERj97cbnTIskx8ZxvMcetbwK9ypnylpzf9T1cISVq2ex2fDNnXrPBqWV/sEtx0xslMg+Godu9eZMFnCjIVP+OeDIqfSQcx6ivoUx3O4hEQzhQ6SeOyaL54AjTqhlyzuJdfZpcAotxxZlXQE/0iFw10+Jzota81p8+oouhdH5Z4lFi8f44Y0WP8npGS32eNJ7ynNJKYwtH30dfiHhn7znB27V9Dbl8JqOIxDevExFYEvd5owdlmNH936F5FLG8OUkEBxp7pwgMcXB+GcDBbdm6v08bdlIQ/L8myA/LjAPbpQG8Oyo/jQ8Su7Mx5u52io2UyNvhQ46flQfwPKHmm0XliNxq7zh4rs+L+X5TVDC0uNJDAr8nbvYg/HPL8Se0tRZYMO5Rqt6lTpaMoaeIC0avdM+RmzpVDZmApegH52ZZGEqdEZkNr5wcJ4H6P66rsIlxrbywGDg+XOt1RuDTUrXdOU0L+GIVUAsWINcvDuPmrsPjklaY5LNzhT3a63TpI/SW6415zmOokxwl8j6IlqYkuB68FjdO64uctE4hVLlrd4G7Yjg/VZ/luowH+wQFuin8K1tEgSg9Frp2xpE+WCHoyJgR27xpAHWgFtoCeV+BbthK0nUwa7gzbLVvLqFyU8AT3a382k7L3PDl4IdvUM7rUKGUdFZrpzpmzuK9v25FEEocw8hAr9XLSWIj/clwaoabpbMZPVMT60ZEQiLNlsmX3eIlJ0UWMPKPL7fKDeCnluigTCK2go4Xg/3ikNSq33V4KW0FIIAVZ5VQOmFLQWqBmPm8qnYPXa9QuWX4C+2oCjVehAGu3boxYY1xzhzRVZvFc6JDu4WM5BvhXhqW6sXnP8tJgL7pU6C7QOrsqQGhlwpESBYw+ybLILZdB1tECZiFb9Ggu0LsQuSlDj70ro38PaxPTQYzsa39eFnF0aLBFEUhbufw2G93d6mp/H5azYc9oNgUO7PHATD4dd4uj2El18EHRluMVQLMbLY4fKPKNUhDPxuT+tof/cgpg9FgTKwY3hsfAfBDA6GEGKPPf4kAd3jNqE/degbEI++UqJRcQg2vLlDUsrwN72GtupDPX/xBfXffRNs7O4JSVl5njEDvmrmn2YploS9dI78aAQdBOlZLNbj8+Jwn0TzLZrgp/BBGTKkTTVYVI28gW7G5GfgaJTBs4ylsDLiFAJbq/E5TEmMHyPGeaKJ5pbiw92D4/RuxBb19trLk0cbtNiFeywyfz+DdlqK73yqunRNLQaAWsRgEaeKZLtPA7mt9cINll2NSUwDf7fZISBftfN5VAVptSFXOvdxeJPWu4yOLvVmmmgBaJTiLo1TZ8toTz5UgzVa+F2cRh3Zi9KYTRoPo1MFwL+fbSPzTzpCowce0JMcpoBB5H9O/tvdzEUZzosFWa0AwbCrFriz/Qc4In/RZR+nWWksTyc/2Ck/huultHhJC4CNQxNGZ/V3mFNjUB8ucdfGtKBeLSvLYGoC2HBvSm/fBLPQK40+1wPCltbkPk04XSDRsZKIEO2xOl0YTS8y2fkc0LvFjrpuYyjAeTeBdfIW4/QpeDyYunoZ9FeRC9XSp1yb+JNwaoJokEX/tNvbjjiMC1xkEwd9H8Z/id0L/fG/aONCTDzbRq77DIXSf11KzPYIhtY+3J7/JLkURsMvFpxfXPab5X0yud+Pm+9LtFuvTrP+B/pq/g8vLfnm32oASwAAAABJRU5ErkJggg==;" vertex="1" parent="PgaCIj23IIEwNoL7DNm--3">
          <mxGeometry x="110" y="110" width="40.18" height="40" as="geometry" />
        </mxCell>
        <mxCell id="PgaCIj23IIEwNoL7DNm--5" value="service3" style="shape=image;verticalLabelPosition=bottom;labelBackgroundColor=default;verticalAlign=top;aspect=fixed;imageAspect=0;image=data:image/png,iVBORw0KGgoAAAANSUhEUgAAAOEAAADgCAMAAADCMfHtAAAAilBMVEX///9tsz9rsjxfrSVpsThhrilkry9msDNgrihpsTllsDHu9uperSL5/Pfq8+X9/vzU58r0+fFztkfN48GjzYvh7tqPw3CXx3t5uVHF37e42Kefy4aAvFu+266r0ZXb69OHv2Wx1J6LwWt8ulWu05rP5MTX6M252KiUxXfm8d/I4buDvWBRpwB3uEwJ6xWyAAAP0ElEQVR4nNVd12KqShSVaRSxoFhRozF61Fz///fuDFioU2CQyXo5STwxLKfsvnev1zIG1/NqHS72SyuD+/4SHlbj66Dtv98mBrNVuHchJp6NXGDlAFxk2wRD9Btuv4Kun1Ud11U0odRQgVgRAHkYW4vtrOtnlsd1O8dYilyapo3hfv0HWI5OEXBsV4XcG66N7cXU5JM5uM0xUVu7AhBx9itDSZ4uvldz8XJL6fnft1HXdPK4hjbRQu9BkpDIqDN522Ckj14ChO8rQxZycLBJs7NXAeDhXb9rdr1eP8R2G/QS2HBx7ZbfcOFr355ZIDjvkGO/dX4MbmccByH8AL+E40JOcb1pFaTrNs9fHsjfydyrk7E+fmPL+xw/BhvdhA818yNd/IJvpxX5wAPAm6HgsebI1kRwDTWqL/Jw/R33sYbQwl86+A2PpAt+DN6Ep8otkIVCDQQP8OMb9A0Aq5eRLiE9ro35BZvOFjCBN6k6jRcmu3BTfX2KOzmBaQC4LX20q89etflHVYgIds2PAc/LZOM+/uzBpAm/YPlBGc8Dsopq3Nih9OhrTgMN79z9Dn0CwIL4nwALHClFe12b4Nrvmlca+Tt1TVUsGNC7BhzrElzgrkllQb7TTxfQCwJFvZBShPWM5tHvh9VQMexlypD4pgcIB70vugxe+VUrQHD/kJ2kAtd9rdaUMTvQL+hV6P7WINhHxtwxaQDyEO8DSgwA9lVEV8JXNxKvXod6Gg8AJor2nB2/2DQcU42LTFUJzrChBCl8xutG9yiaJw9LGaKFKsEuNW0h/FOvz2558tia1L5Q1b5NXkEGf7xh9+hzZ07pIqoZiVfDCdI7lCkyr4058hW1777xBBmA9VbFqWRU0b6DhqGyDwGmTMatl/2ej9HESDmYB1yldx1UUWs2BmoyRXhZ38wSWO53BaE8FoaYg3ygffapD/SpfTmCh449MnJw77nHnlHxSKR83ycjPBYiAFTQQunRQjLyov83CJKiNUi1byl5MfkLcgLgEq8MU2scsby4/IVbBpS6nQa+jLxYGeazKEXpClIcqbyYCwgOjfI6VQB4FVuRyQsiYHj/A4fQRVUuJyYvBPbFzji3UxHoXu2soGtoH3gEZ39gj3p7TtT7Qu2LDY+hZf4exdxwNrMvfM4nsDNeUACfLwyGDldxuxqvzLieyE1BdyHH0N+YbhN6G2FyDVPcllUvrgy3KIAgXSHGjR5Ep+JzGBlOEKGzmGDsYCSn8tcMv2acuZzLHoEqC8psmwkRcV5UguqDeDHYMwPgRTrmsmIet7L/PTN4CW2gkJZXKRH3xkoKF/7I8+slqmnJb3yZuoQAzhVj1/Ny1dTQJQRkqZyQty71Kc6MNOwBmSiHPOl2JGUZYHMDlxAQa1XGQIQBXS07r58PzTuFdP1kJWAeSyrzL7mfRabJQgQ3FZqXBEIq863sjwZmWfbA9hdNMilXReV7bZJGivBk3ayyYFZUvs3xXSBCoub52n7eHXU2Q1QAROCi/ulL4ZiPI14MEBWu51ihrqIQdnGi1PeDjkUFQJ6DLlvpALwYzOGG+9nvu6HmIptgvNndNLJj+MpFSo8fvWcA5YVsjxAHW/vw37iNOkq2K1NXTbu2fULI9igljB0IiXWMe0acZv0W62CpcHDfWk0rwhDEbSEc7FmbyyI8rFfT03k27H+qFJ3lDoHXd5o3KWBnC22iw+p8DboqV2ZOtVeuaV+jMAQ28e+RAc08mN72MqC03aSIOMfD2YyWCDNqInpP0+Rbi7in2pZJXS0C5+2rGWnYpMCDF401qjrA0tof8fxzY1e+i+9bc1bvAWoEPxNrmrryEbx02MSiUhdiGdE4ucmXjWQF8qNOeztU+qlYTgaO+Tey7l0YdSsXgkpPFRMX5FWkUBPqrlrtWFfuUna9eDH/Q+1jaE+01E43QnWS3hU/s9rruroB5CatfAbn6vwuZl0kunfNJfSWmi26WthzHMbwUY7IIlE1IBNPbx/D/zgfM8sgZY6MU52LxiUy8fT2ESHOi+z4wVG9i8a+d246xAi4OykW+f1aXjYiSt/8FEKfd5kzXY3VKKqnWmId3Sd0IPC5dWrMc8FEvrJh4RggJBIsCDeDjyk11EJUtu9x/Yp3zbhCzL3vWE67vY2jpUoEjVnB3h653NeZOmofeje1q5QYIQZjjB1BpSHzY6BQ0ZHoqRbZtgiqNvK1KqaYulFvpxL6RXWK3VvCweOnOlOFB8eK6UKBIXDNcVX0HUuU5sZ8UeC7t1cQh37HTQzToCqZqGg7oGtI1/kuTxDXajnRDla4NK0rA2Y+gWVPniCSLc38ANjyQJFuPGLxprsCQ2LOIWR7FIkb7DGGE3mGuG7yTgvYUknniw1wNYau4Gr+JFj6ViHjqQRxVFSaoXyRe/tgxjsU3+sjJYZa+vVpQmTLLeFAaZdic66ZlSO5pQKVu7RpLzuNiMuWJC7Sh04jKw9rtCZqCaM4Pc2X8RMx0xf8yjE06BT+Mj1aqM7EYJo3mMsxrNkErQWEzNgDPB/iG8w+dBdSDKVbabSObey+llQ+mI1PD6wMw6oqqY9jHAcCZZWPqUcZ/kgx1NWAuCke1Z8S+lqMLasr+SfD0JR7pm/Htqy05GLefO/Wm0hs0u6jhAyDZOBQPkG9GizFlJx7G7GNL2pQ8Bk8ezpB6ZgQKyDBV4mwhXITu1YwWiYOJVu+7zpT0HFfoszCM8IwPCbPCfhO4AzYxQsHEsE1I8T9sysXN9iUBfN0WB7V1EUM5U92i3isoOUpWABMpQF3iVwTA47h8wxyquxLwGrWmTZ2FcWeqMzsGINXC1ylA/NjJ6JcWIfQecQ+sJ7XvZozjDVujZdHJA+dji+aof18QgVBwcAUhFij/hUIRNLtXKmvV/tNV+UQJha+FbeSCvkCsVmn+sa4vdMKiVr+R5w1G2dfrvhJ3u6+lSeXxM/7llCQhDGYoE+WR1Dg3KmwuLxFGVa90lnyevLwAwHD7kyn9DAGxVumF7eFfko6fkKNnNOnDXylximqB5/jrfmQdHzdu8E4hWb4l2qz7d6VL/R/bP0fTlD+VdMVw0vq8ACknkbH0vaecoCfftkNw+EkbRBg9agQa3v99oxzdW9+97qWsPXTdwOsUesQ55S+LFtuOkYHEYvBPHO9+3UU45jTS1HnmohSMRCtONuZT9yv0fij12N3y1sd41aQuhKBOq2IsqMK/Fo+lNjqTYlynkSsP5qmFr5AdkP5tVqbJJs05arnFj4puH4aYxTmZk3UW8GHnpaK6n7xFLcPRn9PKPdR1zuDj5slYzPw1rDxsDZZBPP8JAZYNyIUH7tMu2Se4vYpd+nByT3Ec4yMOmaxDpOJE/NqLKUanDfGycrvI0Bq5wnGjfVyVyRHNf3EZXrdF0aFuFZt/1Ai/XI9vXmujNL2fDoRLIqDTTMjuRSRkMkl9s042rfcpIHaKJ2c3KRmJXZBFb0vHKHfqpU/+HFKLnLOuFExkiUsDLbiNR1oL8gd7MomQ4Oacv7xnol3rhD05Hlr2ooBD0NYJogRaJRsnXQoLdl4HBOqHXfb17x8Mjv5bXSzPTqUluS98ZyK+hW30epeMfTTb+j5SkrvSwsVOB1cdHsyZhG2y/8a8hrGgbaJ7lKaAcSpJZXMspJDf33P62cvkH3D3ZJIiqqoLqcnXb3Rl2VPsPqtWj52hzYOVT7q0gttLxPwmpVrERj97cbnTIskx8ZxvMcetbwK9ypnylpzf9T1cISVq2ex2fDNnXrPBqWV/sEtx0xslMg+Godu9eZMFnCjIVP+OeDIqfSQcx6ivoUx3O4hEQzhQ6SeOyaL54AjTqhlyzuJdfZpcAotxxZlXQE/0iFw10+Jzota81p8+oouhdH5Z4lFi8f44Y0WP8npGS32eNJ7ynNJKYwtH30dfiHhn7znB27V9Dbl8JqOIxDevExFYEvd5owdlmNH936F5FLG8OUkEBxp7pwgMcXB+GcDBbdm6v08bdlIQ/L8myA/LjAPbpQG8Oyo/jQ8Su7Mx5u52io2UyNvhQ46flQfwPKHmm0XliNxq7zh4rs+L+X5TVDC0uNJDAr8nbvYg/HPL8Se0tRZYMO5Rqt6lTpaMoaeIC0avdM+RmzpVDZmApegH52ZZGEqdEZkNr5wcJ4H6P66rsIlxrbywGDg+XOt1RuDTUrXdOU0L+GIVUAsWINcvDuPmrsPjklaY5LNzhT3a63TpI/SW6415zmOokxwl8j6IlqYkuB68FjdO64uctE4hVLlrd4G7Yjg/VZ/luowH+wQFuin8K1tEgSg9Frp2xpE+WCHoyJgR27xpAHWgFtoCeV+BbthK0nUwa7gzbLVvLqFyU8AT3a382k7L3PDl4IdvUM7rUKGUdFZrpzpmzuK9v25FEEocw8hAr9XLSWIj/clwaoabpbMZPVMT60ZEQiLNlsmX3eIlJ0UWMPKPL7fKDeCnluigTCK2go4Xg/3ikNSq33V4KW0FIIAVZ5VQOmFLQWqBmPm8qnYPXa9QuWX4C+2oCjVehAGu3boxYY1xzhzRVZvFc6JDu4WM5BvhXhqW6sXnP8tJgL7pU6C7QOrsqQGhlwpESBYw+ybLILZdB1tECZiFb9Ggu0LsQuSlDj70ro38PaxPTQYzsa39eFnF0aLBFEUhbufw2G93d6mp/H5azYc9oNgUO7PHATD4dd4uj2El18EHRluMVQLMbLY4fKPKNUhDPxuT+tof/cgpg9FgTKwY3hsfAfBDA6GEGKPPf4kAd3jNqE/degbEI++UqJRcQg2vLlDUsrwN72GtupDPX/xBfXffRNs7O4JSVl5njEDvmrmn2YploS9dI78aAQdBOlZLNbj8+Jwn0TzLZrgp/BBGTKkTTVYVI28gW7G5GfgaJTBs4ylsDLiFAJbq/E5TEmMHyPGeaKJ5pbiw92D4/RuxBb19trLk0cbtNiFeywyfz+DdlqK73yqunRNLQaAWsRgEaeKZLtPA7mt9cINll2NSUwDf7fZISBftfN5VAVptSFXOvdxeJPWu4yOLvVmmmgBaJTiLo1TZ8toTz5UgzVa+F2cRh3Zi9KYTRoPo1MFwL+fbSPzTzpCowce0JMcpoBB5H9O/tvdzEUZzosFWa0AwbCrFriz/Qc4In/RZR+nWWksTyc/2Ck/huultHhJC4CNQxNGZ/V3mFNjUB8ucdfGtKBeLSvLYGoC2HBvSm/fBLPQK40+1wPCltbkPk04XSDRsZKIEO2xOl0YTS8y2fkc0LvFjrpuYyjAeTeBdfIW4/QpeDyYunoZ9FeRC9XSp1yb+JNwaoJokEX/tNvbjjiMC1xkEwd9H8Z/id0L/fG/aONCTDzbRq77DIXSf11KzPYIhtY+3J7/JLkURsMvFpxfXPab5X0yud+Pm+9LtFuvTrP+B/pq/g8vLfnm32oASwAAAABJRU5ErkJggg==;" vertex="1" parent="PgaCIj23IIEwNoL7DNm--3">
          <mxGeometry x="21" y="110" width="40.18" height="40" as="geometry" />
        </mxCell>
        <mxCell id="PgaCIj23IIEwNoL7DNm--6" value="api gateway" style="shape=image;verticalLabelPosition=bottom;labelBackgroundColor=default;verticalAlign=top;aspect=fixed;imageAspect=0;image=data:image/png,iVBORw0KGgoAAAANSUhEUgAAATEAAAClCAMAAAADOzq7AAAA+VBMVEXr8vL///+A6m4AAABtsz9kqjzw9/eVmpplr1mC7m/z+vprsjvq8fG9vb3v7++BvF3FxcWgpaViZWVZW1vh4eHy8vIlJSVDQ0NosTaBgYGyt7fo6Oirq6tsbGyXl5fw9flPT0+Pj4/R19c3Nzd5eXkdHR3K0NDf5uYLCwvDw8P0+fF56WYuLi5RU1OKiopbpi3M9sbh+t2c7o9hrioyMjLo++Wv8aW687LO48vE3b+K7Hp6uVKizYnm8d+726im8Jp33GJvsWXW+NGT7YTM4seGvmh8uleRxHfg7OPV59TH4bnQ98qv1JqcyoORxXHB9LlvzFVx3FtRohfVVKo2AAAQHUlEQVR4nO2dCXfiRhLHpTQWO0LYHOa+BUiYBWYTyK4nPjKb+JjxerLZ/f4fZruqWwcgjEBH4Wz+780YHcxz/1JVXV3VUpTsu1Qzv1P//EuyUrT3KPUN/fghWSnvUMZbwFT1b3/9LklRj/4Y6W8TU39OFBn16A+XsQ+YOv31w5/EfHoziMlQlqSRUY//UBkhgKnqLwkioyZwsMIAU9W/J4eMGsChCgcsyVBGTeBAhQTGkSUF7H0R2z9NekosK6OGcIjCRX1H/0gIGTWFg3QIMFX94U9ihwFTp8kYGTWF8DokiAl9/39O7KAgJpRIKKPmEFp7ChbB+iEBZNQgQusYYKoaP7D3QuywxMLTL/Gn/tQodqrX6/kPjwOWRCJLBeRN9ZQv158+fXr4ajjYjgWWQHmRFk2Qesb17eNTpr5c5m4unu+/wLkjfRL1U8yOSc1nUz3j/mlZz+UyqFyuvrz92otgYvFnZdSENvVSr0tajur157soxOIOZdSE1vXleZMXMrt5iIQs3vIiNSO/eteZug9UzqWXW75EITaNNZRRU/Kp9ymT8/O6eHlyjuvRjOzHGIGdErGvPmC5euZlOr2RJ+q3kYCp6r9i9EtqTJ6MR9clc8sncMO7G3n4NOVHkcwsxqyMmpOn56VDLPcowtadNLrlNT94XUaaMeNbk1NzkurxvPX6243MwySbh5znk3e5+m9RiMUXyqhRgXq965fXb8/f7j+9PqOd5e5xlC/iIAM+eZHLLO+jIPs+LiOjpsV5fXm54GlqPcf/3Dw+olVd+IjhPHkPH5dRiMWWlVHz4knYxdKdI3NrbonE6s/803SJ7CIZmfprPMjIgb0ut7J8zFdfbu4e6sAQBvuI99S/RSKm/vSHIPZa3+QlrYqn/zx2ZepA79656bfrKMTi2b9Cy6v3stwClsE04raeAQ/FCfLO89rl7TQCslg6JbTErnPbC2+cEiXJ3A0AevbZYX35NQKyOBJZUmC9xwCfxLTLyV3RJ9fsMJeLkMnGsX+FlNj1NjDhk9/qXkS727hB2N2RiiErIyUWFPbBJx8cnwR6W3YYKfn/d2RklMC+3GwBy92A71z4fDJgbqiThjJSYtswcps+Od3224jFn+8ilhcJgfUetogtfT6ZqUO8+i0g1OVyUVKMqJ0SSmIvmzRysJ6cisprHSPaS0DZX84ORytip+SkiNWBBEwH9du7R1yNByS4QCxaETtaKKMktumVy1dVFsWcSHUb4JMZuXSKoEidEkJim5E/h1nDjY9Y0BoK0UYkFqm8SEpsg8NX16rqrziy+0xgGIsYx9RooYyS2HoGi5S+1jM+Yny1FOyVUeZKVIQ1OSWw3icfMbH4kbmrrB1OX2+CjCwXqeIvdHwooySm9C48IHXPJyWx6esyaE9B9MAPmh5dXiQlply7gQr98G7pMZne3gRPlGIlFVlHlxdpifXcSg52PR5dfi/3uR28os+UUsd2SmiJKT3ph9gwevWSia09UT5g0fojno5s+hITU5RbzL+g53G3E1IiwNQfjwtl1MAU5RP0KWGeDCjIbqkeR9R3dFx5kZoXdMRfn7CJu8ztUX2ZibrJZ11HlRepeYF6XzRdvbt4utij24fImeuGjgll1LSkDAM28HuKmcwuHZOVUaMK1OGPuR2rI0IZNZxgpUbsiFBGzSZYqQE7orxIzSZYKRI7eCM2NZtARXmo5mAd+soaajhBSi/wow4MZdR0gnTU47oRdNCa/DM1nUClTOyA8uKH38+o4QQqbWLhQ1nmjIiYpuvaG1fTJhb2mZLPHBgFMU23B41GU9d2QXOJnTe6lXSQhcrKfj87IyGmX9UYqmPpO+5wxtFm7DIdYmqIt29lzmiIaU3Ghot8dj5mk2KglXlT5WWtfJ4Ssb1N389nZ0TEjBlrGNwjdWvIWPAdKUFa19tN3w+/n1ER09qsb4hP+sDS8KfG/4if4gIJsbcT2cwZGTG9xEZO+BKEGjVLa5b7/X7JFGeztbxqlfoLVW31S+CV1rwEJ/r9UUuOrrXgR/1B5bxTi29q2B3KPvuApU+sw21sLXyV2FVRTAUsCyy1EWvzkM/KPI6xMRArsGpb3iEmgkt5NLNWLL5At2sjts8jSbzSYmxe0HyzZIlxszM0zS4x1uQstQYrs5IlyFQFMcYa52ByjElgNZP/zFfHsxiJ7SovZs5IiSnKiI9/3rBt6ZScGBtgPFPKrGogMdYVQ/CIDfC4NWRX/EeHSV9sTVicxAL3r3zeAEZAzGigR01GV7okVrPxg2bPwMg4sZW6QWwiT3RYA03MksfteIkFdEp+P9tU+sQ4mUFpDND6tiDWkD7KY1xJB2KjTWJVeWIAxEw2ccK9GTOxrfLipoHREOPMNLMw4tBWglhb+qfekMTae4j1HWKtWOOYuhnKPm/zolqJQ/aldBiDpL+E8R6JLVg5FLFhxb0hZmL+rOzDtkdSEgNoc0zNSizrEBuFtDHm5GWF2In5QlmAR5IQ83IxDkgQK8s4pmFI20us0oe/Uf34ick3Yn/YmiOpiGlNN4HV+myBXjnB1ZKi80TWVvYTU/lafoGHHTaJnZgMZcEeSUHMrLJhE1fiRhYBAbGJyY81a4yJ2X5iKs9PVo12p8pGtfiJ4Zp8l4FReGUTE9hsdlFmaGKc2GAyGWW7PLOdAcEQxFS5aGqex7lKcvXzf3bzoohj2mImxltrY/wqsYLZxxMNG3P/ESu6xDDGX4nFEdfCTdWsbpcvlC4T8Ep4WvGkiEEGaxa7g6Jli3hWYnndsLKDoimvn7fcekQLJ8VKy5kbK631UkXBSzTi1N3H0yKmyP+rlTzgxDTFdxyik+SWsmvOCjRm3b+BjITYmpCYX3vH02KzJod2ma+yfiLAVPV1NzIiTD4dTqxSY2zcn1cZ6yTVBpg+njCxubtKkgqx66LQhaV8J58QL667/54uMW2zB5fuPpVdetjllySQ3tZpEFNvdyCjROObIH0fU94LtVs7QhkVLXBGK5+3hE9q/GPePIzYZaFQSLT/Oz0tYpo5mk/4lFdeQCKrz5koloFCEhvwr1wlSUx9CfRLImB6h7nK8sOyj1jIDm+Xf6WQKLHgRJaEl2b3mU+lUyUWGMpIiKETskmnXZwLI/MT00J6ZRrEgkIZBTBtJC1L03SzBim/j5huZbuDblsuHS+L7SIuw8+L7XZTnGvy6/xkGsSCsjIKYjYAG0mLsqEA6xLT7LLw1ImosuYdLLBxYIgfVuKGfCrEAkIZATANZrmZ7R4qHjHNrLrRbVSRxCyHWI3/bI2d68NUiKmPm8goiJWY3DjgyiFmILBGt4R7GIOIoQnWul1BLQViW6GMghiMuh1ETMuC9eUlKeCxSQx39Qz4cauUEjH164kQawYRM8DlrnRIL6AdsNgmBrY1x4G00iK2GcooiIF5ZAOI6TAllA2RkPGP1UogMVMMZJQWMfX5IzExzPc766cEMZNhfwmJQWA/DyQmF5OD1Iitd0oIiGnYOzOdDF9X1mysZIgqLP84rqxnF5KYTNXSszH1+iMtMUWBlKpqYtVCL468fMyYgEnpQCzvxTFsflx5xMo4ivPU4hjXp4+0xGBLP7egom3bZoM7qK3558qhxb0yP/HmyhlP+s9rvrkS2pnpzZUoXyijIKboA5FOzUS+2redfMyeYO7axcpGScV9PDz/74r7IR/DJXw/xXxMaPpESww3pbgaNzUv53dTeoYb09WG78b1nH+WJjH1jpiYollOvWdStjWvoujVgRai2V0RhbQJzBZiXSmRNZOvKK7JLS8SEeNTZCHbKZdHRZwAtGaxWLTwgp4flMqdoun+qs0GP2xV2m7tot0ol7qXqsnPtHYMLwk5nRIqYtAMcf5SNpokJ9NOWpPT9KXi9bZOkZizf4WazQ5R0wmUKC9SowkWzQODe4X7V6jZBOtkurwbgvIiNZsdInrGcp+mp0vsNAMZhrK0CKxtSwwhajS79PoxOUY+aTqkmzwFtYPfPqDpm++/ONVAxkNZGsB0qyyXNrORHWBnWqE272c3LlCT2aVpCsBEcUeqmt9Ghjc0NsyPmsxOpQDMX36AimE4YifrlskDwxr1eGByzRmbXKGNaYbNj4WLGjbcMjJs+VYHuGSLQFapyO362x/OW5etc/ecs6vf9/HdEjPQsESFQm+L8r5mZEtQO6zC5jHtagilrvFwhqFMb2N1tQxdy8vqcIiP1ZjV4Qq3CQ9WQ3w9QVF8H1/rk58Nhx0xmuZsOEtmh396xLQF0DC9EgX8MF0XndiaF+bwMSV3YxkfeQXKZvBbQhcE0FVg9pCVWSGO73zF/x3RLoEzSb/pJ2liBlRXG6Kw4+Zkep+PcYjzZ1lZJ+YLem23w4bkVtyeLEFSnbvfB+NqiJsFyVLCwBInhuaAJlawUAV4hDI/KRY0C6v3tmYWYcjldtHSNGgZsVqxiPulRCOk4djUpddxK7C2pV5isb8l2kpj1Y/uHRPTcLAAzHBMpyhe1gNaiDlSF3MlNz8dWkYluASNgKKq8mg1PFcX+MUG9kXGvl8ekMGuKQBpcnJD5j4l94cjZmZLpU6ziHx82YUOc0C2CWK4I6WILKo8yDPWd51SVVvdTmeUbzNvB9BImOLivRNTTGzaauvEdF+0WiNme60k8M4KvoCmC74J7mq1mdx1MfBuwlmSYVcTQqb19nDfATEDcoUOGplhaLJlhPPharaPGEyEfXhyFXjwr7b51TLkExjlhiuPGJjiVWXMEnsWLkVi2OZm8v1/cnsFOFe1aZpWdpOYximOhVeCKhiqxn1wUHg2XHodeN+w0GpdFh1i0JLr50Xoe+/EFB3Nps3juqYbNSQGoODFWXp+jRj0kIYY4SH0W/ANuU2MsSbGMCaegu46aAoOMbUDjU8W/7scKIhpBRzpsG1ZDYQniDU4FKMjiQG5uWXZMjcbWVazxgoaLsdxGye8qAf/GXwHkjNFYjYhiEmeycf9NFbiur90gfk/zp+dQWMu45jYfM1dTxcJr9CkqcHiEpMu6IZj8MNsC2aCyai7mLtxTGw3S2dXQfLEFN2q+aY2WEmO5MFMEtNxKYnvihIPR4hbdTCylnBKsc9zIlrlzvfHHjHcyDHZPc53RYwvvIt93MUzLBXwhDEAk6h2rmarGb5V0ejwJKQ6wIvFGiQkqzJUhcDIhqtVFUBd1larsvytu/DfoDoqDFcz54U0k3TifjrE8PVZfOq7sp3atG7zQ1MzoOIjbrD4sZhQNaXQbOZNeSu+u0HE85bzgatSuLq6XDs1di3wD0FMWdtZIQ83LwfdGq7e380XwK9H+++MQcmjiqgQY5AZCEtnpw81kL0KYWTyLT6p+OQ7IBbGyPKNxWKQ0lvWT5/YyXUuqYGEEDWiDVHjCKET27VCjSOMqBmti5pGGJ2WkVHTCKPTCv7UNMKJmpJf1CxCyTglv6SGEVLUmHyiRhFW1Jw8UZMIqRMK/tQoQosalCtqEOFFTcoRNYfwOpX5kprDAaJGJUWN4RBRsxL6H1C44naDPWeGAAAAAElFTkSuQmCC;" vertex="1" parent="1">
          <mxGeometry x="336.78" y="300" width="145" height="78.44" as="geometry" />
        </mxCell>
        <mxCell id="PgaCIj23IIEwNoL7DNm--8" value="react frotend" style="shape=image;verticalLabelPosition=bottom;labelBackgroundColor=default;verticalAlign=top;aspect=fixed;imageAspect=0;image=data:image/png,iVBORw0KGgoAAAANSUhEUgAAAO4AAADUCAMAAACs0e/bAAAAWlBMVEX///9h2vtZ2ftR1/ta2fti2vv3/f/7/v+c5vxt3Pvr+v687v3B7/3k+P6f5/zv+//J8f2y6/2R5Pyq6f3c9v7Q8/513vt/4PyJ4vzf9/7n+f6v6/2m6P3H8f0hdAVDAAAUWklEQVR4nMVd6YKrKgyeAtraqq3Wpev7v+ap3fiAIIvVkx/3zplRJBCyJ/z9TYRzVWerFyR9mRdTx1OhyMs+eQ+f1dX5t6OHwr5kXIjVFwTj/HRf/2bw9f3EOcPRBWfl/jeDR8C+5jAZQPnUTh+8PSmofkfn9X9C+Eoh+56TuKZThk6vq5HBr7/CIGRGHbPM5wmMb6J3Yb/h42N3k9YyBi7CtvpyF+IQfiDrHFr8mCO64MwdM3ohfAsf+eZEdgC+KI/e+mD7ACbysIFzMUrGMPJ2HswoWCfu+Xy2obv4j3vpPJfxAcmPxJ0HnFR6G6TtAORxDqBomo4f0vYJmlgSpzkxRLgre8CTW3tJ03Tb7DYZJStF5nXQzgnxKuPZZtdsH8Nf2luifvc+N54vWOPxEpmiUux3HbFF/Oge9WjSseDdTmHubYafZsuQcylGEdkeTXbDOodM2ptSnImjyY5wUUT5K4xGZwZftBBUnulbJcZJ726QBM9ono4HiS+hbdzkzLhVzBwyfbf4xj7kRl8dllhXJ5fPigixHgzwuXrksZ3Op1lmIWiDkIXYjQxcw3JPwcMP7jC30QfXJdflVUM912jrIng5zoNgBednzv13csylMV30bePEru00QmZOvST/jir6WCx8IZWzS9xP77QNNg+wdmwFtSI6SJ1udmYlaZl5TMw4l0zbj177s0tgPaGSc5ibmiWj8FzZq7Z9GbyWZtrme6gjf0hhYoTd/wTkvH3PzXml4CRW3w3c63/xteok/xjnlpNB6hhetPyEda9uMHvb5oVKyLz3Vgp33zf5vI6rVn4owLDTCJo/BVKj/TLAA3WRi/4DJ+AISC4hQl5rNdRa8lf+IIVhFTb/QPhyqkCRpx1T3qrYiiTMOfE9vKOK3XTovhMM1VdViaRqUqwLtOWkUdYFTiMMJC0HOqEehGF1zPDgLcolNYe+GgLr75TDztoTCAP+NZSftEUAjjmnjS/lUAhj/oCuHr9H8pZoEgo5jzklEXwmRls9EPjyQ8RAUq/iczrYpayMcxQ1Br6cNApdIN1lce97QhsndiWcNZOQRUYDJKuaU8+Q6MYqqwdVTY6h5AFWi6B7mIruXvPoiEhOI9GNXTAfkOh62PYEpEa0JYkz0JdGN253M8PlLrKogZZBd+LZ7YkYUJy/aZmzO40z11TEK07LX4gzS7kb/vLVpkRG5FosI3ebCVqVEjdULKLwWB5oVXOG8S/xumqB2PJdrvwzVBOcprvHfCZwhqmynUfNPhKBtLKQiQAGYOCZQRH0Yk7IuELFERyqsBcDIdahjekNH9GDYikw9QCc+0HvhUL2/UyQT6zCKPR3J3HHedh4X3TjtBRf+O5SUOi8pc+pep5DTsfmO415E1I2MZ7IPVp9yOMUbs0CmI70RM4bNalibASFaBUd90ASuRu+lsbMfmZpI/i7M2rYXN0Nh5oW89YmpTNjVgsBcyG95TsqFOZRQ5ZtT/XQ4LKMqwq1N1/d/OKgV4XSPZcQ/K4zx7ODozNo0FPcSOFjngwhMlIVAaHRGdSdaFmD3snQQWdPzpBZVV6MFA+uTZNAHcTv+H4pZvbMqnvQsdmPsqkPKOzKQ/oCA5k7N6MIMhKQD41QQyaf8pG+zVKM+Q+S5jx4FSaLiut9V12Pt3Kz2dRPePxQ3o7Xanc/4nNu7VRyqvnT5mSEd5yt7M9tpXhrhGCMCQOev8TneNWexylaEv+80d0B5I7RUmPb5Me6S4b0cs+yAh3YkPy+6upj3tJyOIQSpsLdlvWyb/LbKXnm6DuLbjxgGOUxWNKXu1b70HKcSsl6+Xxs3ezKXjzxnI4mgfaDUPrNrvlIgntU9k8sSI1mM2Ba1dlMiBpIZ3U14LyRmt382AKjyG6ZUQAyL9KPU52VX7G1SLGJTFlbLYgp4Pz9yT9xbwJc+MhcFoUFjm5zzNzzsIIpdicd+uw4Z8jkr90Ir4JEBdirhoytkqzr+9NTm3pDXZ/6vsuy1asQLFxQP6ZTzxQTa2sWjutTSWqKfepy9aT7otHUMF+M2e8xbjZeuIqBd4oOTPowV+EGvpH0q2HDfb7KWP1Dqt6PlIbDJznr6uuhSP8aJMqwT8GLrPlLi0NVd8wDacFX199Ei9p+vDR89dYApKoHfwsNJSmJV59f7tu3LuPAuJ9M1OsqGd9YzrtNrsZYSxDMwV5vIGemGgBFXnZ89HA/triakiK5Lx0bu8rOxvgYGojwnKFnwzTezw4xyHh0Y40t2RZDG958rYOitQjqgniSIMxZp6wSvI6pU6d7gLwGlDMyvfiQ1hqn04LnykyGhUwnbp9fcCeR1NbNgfGkbKTFabg0Ulh+FuXzHh0Bypj2TZlYzprgm6BPVzSyjGfXp54qCVb3FmH9ZXBC+wuwZFVfTbnOT0K/VBmNsQiIF7cragjBk+vnVFS2mNR5/OT5AZ5+lelDRO6DzvaBMbU3bOXHONYngts/tIgS+KTsm6Gdz06+Em+voM2lrpk81xz4UXEjVT5+8pBKLdUbwZDgEi2lGADokE1w8N+AIeGJkJkwug/yoQtRfRmc4VCiHoSxm8HpgJphPut47VEF/DosZ27S8hf2N8KgctSwbM3eFTyhfAbAmyEqVU4TuRJQ+IJu1QNfJt7KE2OvRuuxzNIInlnooSO+DBGhqaE5SEKixrexwdZo6TBS2mHkaPLMukc7ItCLCsKoZpNeiuIyKhm3lLICYV2rl8pE2JZhqrdzEKsRrzUUpX+CWGDNMLt7v6j6dxMb0Vf2iBbYGV+rSurLY9HHg34g6RYWtXrSXYIaZEKjz8ZuGuywK87Q0ca6TWbssLFJPx10JYnKcdGw5SeHGgaZ3K/RIIHXpk/tiPYwNroEmfZOAJYKmysvJNVUBxPfUovWuRkrUNtTVoDHho7RbuluVDyjzzkQyzP4BkLXbVe2WlRRO1xqeZ6XPiIN8We15444bAoc7BYMyTyRFQwUIJmjj9NA0w1V26oZ+ZsNCpVZgQuDPFljXkaaTQCjH8xqYFReMXttB2EL1rjuQnjmu8P3z39H2FyKOMd9qiS+IIzYEY0PT9vjrBC0kASrZBtnvqYiUFeNjX8oUqNqOxV8KXoGvxVHRuUbGlLackiaw/zbALMNeQfOjFiuvQNbWitMLR/wd7+BKSnVWvSChxipYMrDMaNqrTsLl3J8+EgFG4PqjvDD7+SKHIRhFuK4JHtjUkIid26uRVZTqxRUSoMtHt+2G/4mzKfVmZMhD5Yb2QGIF3eEWyXMSYIpl8/thZMbWhieE7PxfIxYKGp7iccC00+AST5Pb40MNhAMYiPn7BkRpnQxc6WCPfUnFT/APtgBf9PxpXKtfMP9pLzWC37Dkz5BKnDFzghPytIFDFnNRx1ACshjf9e/EB4TKdF2g2ZIEcEGrUaVtA1OTin0Xm5S+VRPQkz1q9TOHgsq5XdMBZIqi+hSTT9kB6De1hrKxhR0ysykzV///TnKU6ooEHSWpHcGAp2/iqc3zlUvOUwPqEfFOFAZpjspuhXIL7rkuUTmHNVCBRoCZVCBFOcqhbNlser90XXa+XEVf9Lxkkwu2gdas2T8TkXX6SZxAaI7kZixByptmU0lZpRjcRm9SMySVUXlQqtygnxkIqtSHona3hJY1TRBpHp9aF7l3XeePAyqGhnVSAEFEagZERFKTYUgJ0y3yzCBViG0ZyLyHy6oZkhFIaIWVmdD5PbufNGljr5uI0SofpJ+ByVliolQGpgQD/nyKvLzxpoEcxjVREADMJRS1mZQgNoht+vm+XVKYzLNi+CEfM0ABG4TmjxC2O2UOapbNTSQCre5UM4m2PocAb0nnwNZEsitCLtdUB5jP95MvFgRdBEmQNDYfr2pLH5IPpLZKG9FF6n7bC+lDpuHZRUoi1LiC0rFYYArknS8koYV1ahKBTLcX5IfCDB511TNpVIw7B1EULzemJXhKsEmgSzctnzAf4ZKpfuXKpT2M4mvOFJCciOZbgO0DnImM1eUGxAg4OgbNFHaBuO0FF7iaxopITlgKiS/G/eskyIBuMyDAWoBRw9oFZJCha9QPSRe7cG0kBwcLjLrZgxfWgDCgR/EG2SueXlw1MQaNUiqTob1HgQNpXjDbEEG0zlVVDreCxeanID+tQ/4aLupegWBvqBqN2HhoXAAes9/O50O+57cYG5ZW2M8QN85uVxNFTB7IqvJGY9JOHTxu77YuBsWZnIwChsEX1ncTzuDWoCcHC6rrbawemrGczT1EUE9A9ArdsYAoBpbG+LcOygYEYJ3NvcEaBgfZRpst/GcPP1OMjqx6qankY2FyfcmowR+N3K69ruhSGaArN7ZWQSGrz9cBkTBCG8xsplsd7cZ3bFZYj3CkPL61ZJrYooWnLfbcWZYUHKc+qYOuZF6bk+saQzmyVaWh0EskCmgE3sedJSWtldFHwF5oiNruQTpPaDZc5aJilDatuQ5wvSbSV0AwKbA5AfgFwQjTSszKU/Yrrh6Q2kKC8Y3BmlaihFQaYtFdWSc+wg1F9S1rg52+4CGKDF/cFDtEAPXwF/fvbiVE5BPKVRiVSRz6vpBsfKxFY17215bjDWjUp3VDILOm1uNQGHlAVBGBIp5U5PVNWN30yGczZzv5xaL8qOsQtcZVQE0nQcRYHevtCY1n290xTj3u0rzCTldF/7QgcrnHku+rOtzWKEZ2fgAWzfoGyT/9Nz25mapLGaBLq2jJT91qP0+WGlZ9bfENYIDr4GpnSE1H6zV8SL83pBUv8ZPDsZATBjGDJa0RdVfYNWFsUVgw1oblDzU35h1Tp3Vu86C1ojo82FcV3HPKA7ZAdKr627nrDXE+HaMGJ2gHAZDl0hbV7myOE5qpZjTBYWwmEldtconoKQtPFEG9G41mTRtqtpWwPr5mu1a1xBoXEXaQ1OF1el4Lz5bCZ6v0GIxdOF9vEvr4n48rZzNhAT/UTeJdOfY4uFjQ8eMoZdWs1UaSYggcsa0eXZ+dfx6dk1yfp5nux82BC1sAk5HeiiJyjBBOoic0QOcZNyzEdZDHbj9vKVgU3phrAM75oem2I53gVmn26Jp70cn3yVxLWdq9NPcyKvPHfN53xPPRJJlXdefHjD0TRz+33ddliWfB8KHfjDK26xNjS6VO94zjvzP2jc91Jhq/o5VBek+/R+wRGc9sIZWczfUowC+OXOn8RdAa72qZ0u31mP9ddnWemq699B4h3kIxqmIDph2ZT7IGxn7XKBxImQpfQ2Ay+H61Abm2OmX/nI6Hr4HVTbPWODwygRDzbe9Lg7XoZcW13vURqM5jNXV17vWNQmank5XkV0g3RV0gmtaHHblqVtxawseJ6LDq92prA5nWi+UzbfnvjobEwwd6uH2rEZRH7tltiwe/q2dAZ4323FFW6qa895oMgAmGLoAlUJxbe/5rqqOx+PtdivLx38eP1bVLr+3V7QM3H4XSOP8BUZjAPdAeGhvSsWhfcsCay6h2ficV2sNAJzKw7RDN5vdc4VqqY87L12OV5Vh5wbNdVvTnxv6a7zcAZJ/zN1+O/QaiI0TF2VF/FjtctdAeIRYVVAyuYi4HXryfO/ogYCc/8xjIPwKFyWbmRDVmNLlm1C92BUuwJh908YPo+xKYVO+frzLUqz5EEFGmNKu9/4pUTL7852lrl+KuqJN6W+giA7laqaA/IalLteKuqLNeiOckhAdctOjvLBuXq1ZyqEQiaeUvcpUXvUGuZBTWMasegREXnuopDB9tMm1wpSDgsFLXXso5VBYZo2SMf0+pHikA4NJ92WMhPgrSxE39qTAEzLlwDQsMBKmNGR2QfyFtArlDroiapdj1hIJC11IO+G6YaWdBK+Uhk7BPqeFrhueQkTqvaWKbAoulE6jD1UQTLoq3Mgw/cw4IkPHluj0W5h2EXxJBvhGekraQbqal0E3qmPticCXRSkKq0XQPUxDl6j1jMwElujOaSNIdAOu3wVY6wnEQUV4AEujG9l+OdWKPZNI83wZdCee3Qfcle0VsUney5zdaZz5z6wFjJUjy3BmqWaE58MNQPS7jiJGmVs3q5oBumrMoaPqAKNuT4jX3Rf8jNHd+zWSV4GlCguZCOtgvysAmfS/8k+iBwDP65wGIFzxGKzoUirVe+mCFSvo7B76ahDI62gDNd1UVTDU5P+ACvgXSF/uvFfSxkZnCq0bdqN2ZRAijBWERqpiIfIKdq2TxCA9tC4UYVVlkpbn9TMDjwjYD702+PlqofWuDzgdxRSOGQKQ9eLNq1LVDhLiHV3aqgQuOu8DDGVMc8qhP8x68T28Ws09sCWNfVlq8AmAOFo4BkEAzZ/8FlYjZNahoOyiCBruNpk704i472kMikxDSOOk2n1ALPPhCNa7rn4P0FDdg5COugFkZBG5nzABnp5VpxpAJrw6mVWj+y4o80c3kkTmsnFkWtUCKa/g0BivIkn1i6vEiqTUQi8Y5vUoi4ZqlNlp+c99vcUbrnpKJOstq7PuNW1ajBpJ2mUYcwMW2Fu51c6o8ba1cxhAb2HxeNl6UCDa4pFPOB0wE44OAKwro5uDQ6aa/XCY5bJVDEXMnHbzBkzsJGzVYmNmcfPeMbPU7IfDmNnhQLGZF9ncP7W9H0sU3b64EvVzXjdMEvdoCp5dFYzvSluMSb0bAkB1JzJR581lvz231Yksg2edVwrWpSPs/8eAp6o9b/eXJq/V6tpZg2EKaF1bhRip8gq4PJS+KFW8b5LXMv5ntnQVMJun2MDWjYoES0crCnzTJ38Ce090WRJav0teDkuhO7Plp8LFZ1YsxtdQ0T0s9KGXqIcD2Ju3feoz4scoBX59dHY48G/u+DNYj58zxuJr/tPj+A5zmzo6K+yshUJi5PZGz7Ht5e8iJpfjF5BSPZOGqqfND+JUzYbsecICbwH/KaRVgiWeQ73eavMz8d9uVkox5VCMff1/yD7hkm8+oYXsdDz8mIfsD8fTJ+202+ST+fE/zXvRL0LEH2YAAAAASUVORK5CYII=;" vertex="1" parent="1">
          <mxGeometry x="369.98" y="30" width="78.59" height="70" as="geometry" />
        </mxCell>
        <mxCell id="PgaCIj23IIEwNoL7DNm--11" value="Backend for Frontend" style="swimlane;whiteSpace=wrap;html=1;" vertex="1" parent="1">
          <mxGeometry x="259.28" y="150" width="300" height="122.65" as="geometry" />
        </mxCell>
        <mxCell id="PgaCIj23IIEwNoL7DNm--9" value="" style="shape=image;verticalLabelPosition=bottom;labelBackgroundColor=default;verticalAlign=top;aspect=fixed;imageAspect=0;image=data:image/png,iVBORw0KGgoAAAANSUhEUgAAAVsAAACRCAMAAABaFeu5AAAAhFBMVEX///8AAAA3Nzfm5uYuLi5QUFDU1NQpKSn29vaSkpLh4eFdXV36+vqzs7P8/Pyenp6kpKS8vLyoqKjZ2dnt7e1sbGzJyclmZmaLi4uurq4+Pj58fHzr6+sxMTHW1tYQEBAhISHBwcGFhYVTU1NERER0dHRpaWkaGhoLCwtCQkIdHR2Xl5dLsDy1AAAGI0lEQVR4nO2d61riMBBAO1xbLFSgIMoCVXB19f3fbzMFXcAkk9TtVzOd81NSDMcyzUwuRpEgCIIgCIIgCIIgCIIgCIIgCIIgCIIgCOyJJ033gC3pqOke8GXadAf4Mo6b7gFblsume8CW7qrpHrBl8rvpHvDled50D9iSZU33gC2DftM9YEu8y5vuAlsexk33gC3ru6Z7wJYxSImmJkYgCVlNpLBuugts2Q+b7gFbViAJWU1MQRKymhiBJGQ1kfag23QfuHIHkpDVxDtIQlYTSwCZIauHXyAJWV10JCGriwUUTXeBKxm0IyG7G/be3AZD3V2PYKNaLYphnygbDgCSKMoL6u2QYcijiT4ofrm07AJJVD6liFgaF3Bwezvk8B8+Y1OUbm9cWqKMjh1sNlXNHm3vcwOA6+ry3vXVPc0v2AR/38K9Q0t0mzq0W6t2lunFW4CZ/pUtAK+ao3L7vAOX1B7duoz3Jx2wVGHm5m/JgKHb2T3Anm7p6jYaqYbvphffzDc1R7dZtAe4JVs6u41mYBxk3QEYV9rydJuDQ1Rwd4uPq0I7EFPfkGfjVTzd4sP9gWrp4TZ9BVhofq6ixYt58MvUrcpCyQkWD7eoSVOenWwABtaLWLqNX8io4OM2SnRR5hnAtoiZq1ssqBIpkJfb6PA1yowBNrZLOLo9DhHWloFTiZ9bbP108RMcmlk3OvF1GxXER/dzW+a+F/XvByqkM3arUs4/tpaebsvc96z9ky1bK2HsFp8/iaWlr9vJ8Dzde6TLbZzd4rfWUrP2dVsG2I/3zrWDsks4uv0sSykZPXNLb7fnue+DPpm4gLVblGEegPq7xdy3V+ZhK4AdeS1vtyjDmDhVcBufJiGW12MGLczd5paoUMFtKXVaBtsnujFztzgqNVmo4haDwWtXfRs2DtsaOLq9mNBZGKMCus0nqRntVeohtjOXcy9g7zZ+haH+HiMnZrXD1+NVtnHzJ+zdYojUR4VqbnHu0VEZf7eYq2qf6ej2xoZ2HgxrtpZ5nHNa4DZ6gUIXO9Gt//svjve0y55djm6vc9G5fmVMpXHCPd60Q6IKdKINbrFoo1kZU8Vtt3yO4QyPw6kprXAb/YG3rxaruD0tA3kH60TZiXa4Hemmuiu4/Vy+1G9rPUFT+7vVRAV/t4+fIwTMeskFfS1xG+2/3mfebnP491CcAr10py1uf32tt3q77Z8XftZ04tsWtzjhfRUVfN0ml/O6KocwJNMftMZt9PvapKdbLC+eZyU4w2NeC4a4uI23AZ03anQbw9XORT+3WBa/PK5uRuW+VrcZDuLyvnMC/RMwusUb7+IVP7c3AC9XmfMdMdVrdXuLbjuQLMebYLb9md3i4+e8DODlNlONt1c/iwv7aknS7bys0OXB7PuzuI2GF2NSH7db0K2AInJfB7dh7Szp2xdyn3n3WX9b6Ff5v1vnJF1iwiZ5DOcYPJtbHEb9+yQebhcqxdUq6JteQGi3+fMrTmuGcqSY1W30cBYV3N3eG29Pa+5Lu1XfiG02DCneWtyOzsaoXvt0TJPFWGIwrWYk3ablr4+DyTDsbrFo8zFscnbbAegYX7Tkvlq3c+zDFq+bq8FH2VV6a8YPgXCrXv9Y2enqdm0fxppzX53bJ3WXz6GYJbArI8rqcdwJ5qAbym3+uTbEcc/plMic8G30y+50bjMUOcapYtw9MToAuG2Q/RFQbvGDHTeFoJT5yEp6bGUvG+CTTnvnaWNC+decjD72peSjgA6+It2qVPUYFRw25S/LPSQ9YoyEU786Q+zqYAfSbXqqaju5faLLtGXuqwu5yu1LxU/xM5klK8rF8nTgwSohWHXjVbKyHp5QMletNFOT3VVi3ynEkVXQp2/8cA5y4mdt5MTWM+EbLIPJhQIkcVtCK1Rh347j0hoht209E77HwGUpolCNd4kK9bEvmu4BX2KJCvUx+LLkQPhvZLtQplgDZB/KFGuApMGsxQqQrdMxrUIlMvtkmPAdbuh5BaEiaUf+oUhtbMlDfYTKZMEsig+QhUSF2kglg6iPbSir3UJk7PSfTIRKyI1bHzF9HIJQlVzGCvUhbgVBEARBEARBEARBEAQhOP4CMlY8r5plToAAAAAASUVORK5CYII=;" vertex="1" parent="PgaCIj23IIEwNoL7DNm--11">
          <mxGeometry x="20" y="42.650000000000006" width="143.58" height="60" as="geometry" />
        </mxCell>
        <mxCell id="PgaCIj23IIEwNoL7DNm--10" value="" style="shape=image;verticalLabelPosition=bottom;labelBackgroundColor=default;verticalAlign=top;aspect=fixed;imageAspect=0;image=data:image/png,iVBORw0KGgoAAAANSUhEUgAAAOQAAADdCAMAAACc/C7aAAAAllBMVEX////gI07eADzeAD3eADrgHkveAD/gIEzfFUffE0bfDkTeADjfBUL98vT75ur//P387O/2yND41Nrqe4/ysr3ob4Xsipv0wMnxrLj3z9b+9vjumqn64OXtkaHzt8HvnqziOl7lVHDkSGfiNVrrgpXmW3bhK1TnZn7sjJ31xMzpdYrkTWvwp7P64eboaoLiOV3dAC3cACEAhcNcAAAOGUlEQVR4nO1daXeqOhQthAxAVMSh4jzbwXrv+/9/7gGKQggQJBDsuvvLe+1qe3NMcsZ9Tt7e/uEf/kEYvbnnuVPVq6gXJ11HCOjbVUf1SmpEb2NqPqBlLFQvpU58Ey0E3f7izZxifJUSku7tWy6ZdXN/5/XwDrSblOgmmqtb9sVRuyrZWMNIyt31G32kaUQf/yqdO6Q3ITV0Dr9xtoIvLPKueGEyMY3Oa7SV2+vWYmPUU7w0idhG51WzAw3b1aMvTdJXvTZpGJG7kHP/y/39S38z96oXJwuDSCrr5H81N7QYrPUvUbNfkT9wCL7awbiQGgSe6vVJwQbGjubF1JLA9q+QkuDQFfgM/v9CNRZYn6teYXV44H73ulsrJaMvpfn69/Lgn1Y0Cv5vYUOOjP4uH1/dYLq+NkXBdXSPvG0MYV5Ur7Ii/I20gn082zhLRk0DE9XLrARH1+Da/+/eyBbRh/HSwZfvjQcCzPRcGTX4rXqhVXCC5ti/j3a+jJqmv3JMomHgG4gjX63GgHeqV1oBCG78kBIVyehr4KXqpT4PZK1iyYHX2cpex/lxPc9z5/Ou0ymw40fQf3MKb2SAdnjqjrtc7U9raCEdAIQQAEDXkQXXp/F56WZkHE92N5YAyQM8NSsOC+dzdVkDA1CLQMjadAyhaVFgWJv9JF0RmPx13sZs5MGHoS615Z5PmoF86Yq3glCAtuN+Yq2d/7r3gLIAdKhGwvcTBVZq73IlNZG+XXiPmzqa+7ZS7FcPCiTsTTQktry0oOAwvMnp9EV3UkONByPTD4uW2UJWUEoH7vUPvS3E7mTj+rUzNswKIgbAxNidw/v5LqRd/ch61aSI0wUQ/PAL5KRg1Pc/MSE7qWlk1KCMM5QZ3pYGAcfZ9CKoedaNiegeBU+XILClrwVPPmhKxg/jKY2aL6fgz9nNuAOdP3K3sRz0RvIDfQHHpkaAJjKwy7xkUxNCuvXLOBRU9a8s5Eq1jA0c14lyGetXPMrPqpYyIdL39bMFMmoouabDp1wZvTbICLfJRW1sqYrINdTajivIV3JVR4h+5MnooTbIyIZaPV2DWJqjN1HsA0RgguY5SJ/gpzHOLzg1Byb9sQzcaOsrY9Wl4GxVuuRxsImsKzVGl1C6POtKXfI4KCPOLUtoVzWXP1uBUkxTMJJJ+IiehqsxCpxBe7YxfVrPUQ7GrJD6cS+2YD60GQDGv3nwDo0nq3o/s7XeKhH9U5lcYYyDh2l5/nrnfa/pVosOagjEVEIGsT0ICrnicPrD8dampB3GPw62BttJGG9xCkxnoemImm3bwitYYsRHMrsNBA/szLbat4ER2APZYSgxRKhCO22NY8MFS1ZKFcIMASZ3V22usQiI6XJyU+40q3w56OBWy0hY7cnJudNZkZDf7bKJDDBhosYBr+BkFOieIeD8UnugM1mOd27sV1DY61UpGdcPm7EeXcBfrpEbjpxbrVhtxtXpZRHx8pmUIqwvVcAGS49cZ+qPPDPy05b0BgdQZxf+nV3Iz6tEi7G+lMDUmJzjdJtHVmCjsRj2UkgONQDrFybo/4G5ti4ndzdqqZEkKYprv4gclTrcd3y3Uu8QY8QmjseFefzsrRSktjUKYpxYq+dl9408YGRVR1byWDlyAKk9YIscnZEQ6ySTFNtpkwnBkOrbM3tQOx+GoOIwskpAs3YkVyGxkEFOk1T72XxgCBsAM7N39tAGSwkv40k/3V/nTL5L5Q2z+aKXFuwlPg6GjLJx3sc7m5bTi2wxIYZFGyrJxAJ0fRrPJsvlZLUYfGsGLc83hX8yhXxbtiRdHrLyfVgmKUX7foCNPhNHY9TuyFkYZJAt5NvbZxvUT3VgK6/K1Sp7WQEot0Fv20L/7gnktwK1OLAsBTu3KotbndASBs2tVy4Lmm5fBAWta6e2JgnKgeae1152KuyVgPKZhb12F7cEQYrG+IwzZlO8EopLXPNNm6uxYhCYvTBfHAMpOS2tkJgm8ZHud20XcuKtB4I5QPjRXARNinSqrTeXfYDB12Z9tHSh9lc1EGpdCxw8enPYCUDf44nXZfIuU8c777cAtI4LEwATASH/YA1M3DBdYI7yKmI993xCqGorpXyI9B3sMNlcezcxKabneWMNtMy+5nt2V6yh2bn666nKGR/uHpXMxdSLYGpKEb7/ulcaojgDsTdcg/aIKTLaZhHsny+kyGF9oL+pobfySZiCa/aFLDszzvtui5iiHU8TapzLyeijv25HewUVHFLU/++jtIw+hlYb4jXRdv3ek4NHp6MW9AOx3UDy0YfKN7OByWG9i/JMtVW7kC1ofWqkXX8O1RqTZtr1p2ulFxM10Mke4KQyXyRqKCtjoFD9CCUHpGCvTkqrkMksDR/KpCxMS0rEXhUbIb8WKxkjRdoHNjrd96DGkjQ8AG6nxCtoWEhHCY+/XCdedfRVkBEan1c4VqB8mh/KqIBy0fyk1G7zPkH9qYEUzo37BI06Azc0fmBFcuiyMW+ahtmgg/5A090nSub6Tht2CRoLmhNouLeviUF+HDQ7vcBQ81xMs1tpK5Gx2a0U6FavB7MGW4mUzb9nxzzUCVPZ+6sNNjGKMCPqgdvcVjYy75aPY2OqJ5/yWiuyVI902aUN7fM1yeRrbcL1ZSI6vumHf16x6IxwYWQ335XEdA8ogRhDQg3R4I0/0sA6yzYusjzXz/hceyRIauKfV8uRHVPrcpy6WbKUbIudWJeXB/EvkGQKoiR/Z8akGUVVNk9IP4jfyE0cyEkLvLOBvuhjdLxWeP8C7eW6CUjGs8BTlnaFae7Pd5eftw+Bp2KMDvfbFaDLsJKpXEaByt4BZGir4F/mXMpgLoncNjEp3nna00Y8vXPXcF7w85iavj/ZS+vRIOUk+vhLFpIHS0p+J3W4+MT2WUSl2UQPhQ94ljKYiORVsiH4O6m4REf15SI1LYTv829vGte7a2J0SU+cC6focE2LMMgg8daRlDJIL1Wl4pJmOn9vOi6WWAaT1CmwzpWFtM7L+HGXEmbNUyviCnm+Tbdaxn/cmrBChs5JNSGRl1iSIUHGt37qAnFdxR0NOcHJhCtkDeX1OruV7iToTGOHS04VZJlShbwSkgeumfpD8hIemV+9jt5Pf24lEDhxsfOROa6mopAaTXMSDzDMs6zyl3/jpXL+pDiCj/ihXiU9TMUxaumtdI2rASwo9BhXKv+kipCBonkobUlFEJ6W0FlOvq9SrVUhXSAiGC+quHW2E4vhsCQ2b5e3ciNZKgtUqrVcFrHRo/sj+nAhD2FcdT8K0kp23I8dxOev9YJsOS4cFU8i2lSVYWRhXPUZ/VPS3hs9cJdEyOM2jEIPpDASvvtfVXpvw7gqukLSkjtZo8MwhbOrJzcUY+7ch147VXyBMPsYeQNS3NYQ86wkMbZ0fNgvPsTUyIM0VcVMXr0J5/qxytvI3CQxDvqehVaHH/FZlVLQdajAzeURTDUJQcqou9hw2iopnut7jb3wcFkyyzyib3/mgT6STb0KrkDkqYZtu6bU4sCgcuIpPhHbq6B3opFYwRVBcsn1TtX6FIw/ZSL6vC8H9zcLfMOcN+jsKYyr3UpoxlPcu+etJI3cSTMKaCSiV2lmBKbxNO28Ah8WRQ4O1Uz5lMF+Bd0DaSLf/vH8aX0EyAhbNbSgPc/UhSSZbq8wtcqOhoD2DFBLAX3z5AaQY7Lk9Pm8u/PIIjt2TUzl59rqrC1zrPjuPhcmUzN5ZDp+/kr0deLofT9xYnU2D12CJGp+jBNCxhKsXn39Zx9lfQJopBZzEf4bmDL591jKqq6W0J/huMRJC0H/pBZTwn6A4VvCB6m7YWD6/mUZZR81IjonNSHum/uRWbJkYkt8YpOHPindmA3tE+dMeeL+oeEkQ7IG+gUmpBQVGYIt1+kSb+QCZyYVJC8JkIMVLpqi/xDR2PIL3Cth/UwOTKWJCg6+qIrl1hYYkYUt+5AxDUY8txO+Zxd3G+CO/ydrQHe1BbmvxkFT380ySTXimUg7OAlxV0B6yJELZzki/Jln0KTGepHDfRGfMn9NI8RSS1aDLcs3uLOtbqBw5HUIEgy6s7fj91xilCvs65CQDxhLEqpiXzvecjb+Oh02m81p8DHpF/ogHWFOOr4+xxwLyZo9rBUg3r6lX4/8IyNPlZGvS+IgnEC55S4fxTSJbNZ6MRC2kNGkrrtuxVzWUAvBDlkgmYoWRZO67kUhWwZzrgGME14ApGDkZkQ0NPJQ78w0oKJp8AnEx7tgywieevngH196j7EjPWU1OgrieTweYYGWcZwFxob/EqFG7xJFcack3kPd6NxyQ5hQfX0raHb5I/1irO9bAgFqTcy+qgw3mO8bCAhHw8hh6GncCwkevptz9Y6SWenWYmGbFjJ2+0ncp+W/ZGrETP6VYYt1dY074uge7fXg7DF2bsTzC3D84clOqKmwovbWkvjpciqI3MFEEMVj0HGwkVgOoUwJFtwOg2P88oVU6RfZRy5WPOMBksZwYP4+GbGdJLEFFDBovYLO4YNtoglgHRl5fI+PrRK9EhZpGbHB5lP7hkY36vohq+IrrXNMK8WCPkKj+YyONGxSTjk0vlJbtkC6sgblyuik6puY7tKh4s/fY801jxrhptKYJuVN6z6+SGjFw5mtGBF9zwswFq97VN/Y5wOJ/cW1EdPXtRxzLXEdsal/vUQIVQarxHB/TOn4dfcrA90ENZ2A4+R1DX0WZrE3rSCiXyXfeHgFeLu7A0AoOC1/3ya+OZfbbYQWoKP3XyjhWy98Nxv6O0g3s9cNDnOxQjpFuvFnP5z/xi30MZ1Zu+BJ7V9nDuPovEgh6kXxP5GM94n939jTAAAAAElFTkSuQmCC;" vertex="1" parent="PgaCIj23IIEwNoL7DNm--11">
          <mxGeometry x="190.00000000000003" y="30" width="88" height="85.3" as="geometry" />
        </mxCell>
      </root>
    </mxGraphModel>
  </diagram>
</mxfile>
